<svg id="logo-licita" version="1.1" xmlns="http://www.w3.org/2000/svg" xmlns:xlink="http://www.w3.org/1999/xlink" width="400" height="225" viewBox="0, 0, 400,225">
    <g id="svgg">
        <path id="path0" d="M155.000 89.101 L 155.000 122.637 158.177 122.891 C 172.959 124.074,177.955 125.698,186.354 132.051 C 188.637 133.777,193.431 137.656,193.834 138.102 C 194.053 138.344,194.310 138.542,194.407 138.542 C 194.504 138.542,194.583 123.506,194.583 105.129 L 194.583 71.716 191.501 68.723 C 180.822 58.352,176.657 56.755,157.552 55.706 L 155.000 55.566 155.000 89.101 M236.354 55.768 C 217.896 56.977,214.827 58.211,203.177 69.108 L 200.625 71.495 200.625 105.034 L 200.625 138.572 201.223 138.088 C 206.648 133.701,208.108 132.550,209.745 131.373 C 217.957 125.469,222.742 123.976,236.927 122.893 L 240.208 122.642 240.208 89.134 L 240.208 55.625 238.802 55.663 C 238.029 55.683,236.927 55.731,236.354 55.768 M146.667 94.131 L 146.667 127.638 149.948 128.320 C 168.392 132.153,173.230 133.885,188.594 142.153 C 191.898 143.932,191.762 144.053,190.553 140.417 L 189.688 137.813 187.021 136.021 C 179.431 130.923,174.152 128.414,168.646 127.288 C 165.409 126.626,155.216 125.417,152.875 125.417 C 152.783 125.417,152.708 110.899,152.708 93.155 L 152.708 60.894 151.302 60.761 C 150.529 60.688,149.169 60.627,148.281 60.626 L 146.667 60.625 146.667 94.131 M243.490 60.778 L 242.500 60.856 242.500 93.136 C 242.500 110.891,242.420 125.417,242.322 125.417 C 238.956 125.417,228.774 126.740,224.688 127.708 C 220.205 128.771,212.758 132.610,206.860 136.901 L 205.460 137.918 204.592 140.647 C 204.114 142.148,203.765 143.418,203.816 143.469 C 203.867 143.520,205.349 142.796,207.110 141.860 C 222.714 133.571,226.653 132.188,246.302 128.103 L 248.542 127.637 248.542 94.131 L 248.542 60.625 246.510 60.663 C 245.393 60.683,244.034 60.735,243.490 60.778 M206.458 155.938 L 206.458 162.917 207.917 162.917 L 209.375 162.917 209.375 162.157 L 209.375 161.397 209.896 161.959 C 212.767 165.058,217.385 162.566,217.385 157.917 C 217.385 153.268,212.767 150.775,209.896 153.874 L 209.375 154.436 209.375 151.697 L 209.375 148.958 207.917 148.958 L 206.458 148.958 206.458 155.938 M137.917 156.250 L 137.917 162.917 142.500 162.917 L 147.083 162.917 147.083 161.771 L 147.083 160.625 143.958 160.625 L 140.833 160.625 140.833 155.104 L 140.833 149.583 139.375 149.583 L 137.917 149.583 137.917 156.250 M148.542 150.521 L 148.542 151.458 150.104 151.458 L 151.667 151.458 151.667 150.521 L 151.667 149.583 150.104 149.583 L 148.542 149.583 148.542 150.521 M166.042 150.512 L 166.042 151.458 167.616 151.458 L 169.191 151.458 169.127 150.573 L 169.063 149.688 167.552 149.626 L 166.042 149.565 166.042 150.512 M195.145 150.469 C 194.974 150.956,193.934 153.917,192.834 157.049 C 191.734 160.181,190.833 162.783,190.833 162.830 C 190.833 162.878,191.482 162.917,192.275 162.917 L 193.716 162.917 194.167 161.563 L 194.617 160.208 197.687 160.208 L 200.756 160.208 201.234 161.563 L 201.712 162.917 203.148 162.917 C 203.937 162.917,204.583 162.877,204.583 162.829 C 204.583 162.781,203.552 159.812,202.292 156.231 C 201.031 152.650,200.000 149.689,200.000 149.652 C 200.000 149.614,198.978 149.583,197.728 149.583 L 195.456 149.583 195.145 150.469 M173.071 151.762 C 172.590 152.742,172.368 152.962,171.465 153.350 C 169.996 153.982,169.904 154.939,171.302 155.040 L 172.188 155.104 172.299 158.021 C 172.459 162.198,172.815 162.670,175.959 162.866 L 177.708 162.975 177.708 161.810 L 177.708 160.645 176.406 160.583 L 175.104 160.521 175.104 157.813 L 175.104 155.104 176.510 155.043 L 177.917 154.981 177.917 153.949 L 177.917 152.917 176.458 152.917 L 175.000 152.917 175.000 151.771 L 175.000 150.625 174.314 150.625 C 173.691 150.625,173.578 150.728,173.071 151.762 M241.404 151.762 C 240.923 152.742,240.701 152.962,239.798 153.350 C 238.329 153.982,238.237 154.939,239.635 155.040 L 240.521 155.104 240.632 158.021 C 240.792 162.198,241.148 162.670,244.292 162.866 L 246.042 162.975 246.042 161.810 L 246.042 160.645 244.740 160.583 L 243.438 160.521 243.438 157.813 L 243.438 155.104 244.844 155.043 L 246.250 154.981 246.250 153.949 L 246.250 152.917 244.792 152.917 L 243.333 152.917 243.333 151.771 L 243.333 150.625 242.648 150.625 C 242.024 150.625,241.911 150.728,241.404 151.762 M198.818 154.740 C 199.357 156.315,199.797 157.674,199.795 157.760 C 199.789 158.017,195.625 157.949,195.625 157.692 C 195.625 157.326,197.584 151.875,197.716 151.875 C 197.782 151.875,198.278 153.164,198.818 154.740 M156.783 153.007 C 153.436 154.249,152.400 158.918,154.868 161.635 C 157.555 164.592,164.167 162.841,164.167 159.173 C 164.167 158.395,161.568 158.553,161.291 159.348 C 160.623 161.263,157.690 161.569,156.785 159.818 C 156.308 158.897,156.353 156.738,156.866 155.896 C 157.867 154.255,161.250 154.764,161.250 156.555 C 161.250 156.813,161.537 156.875,162.722 156.875 C 164.150 156.875,164.191 156.861,164.060 156.406 C 163.986 156.148,163.875 155.750,163.813 155.521 C 163.238 153.378,159.441 152.020,156.783 153.007 M182.451 152.916 C 181.431 153.223,180.468 153.950,180.126 154.670 C 179.534 155.918,179.626 156.042,181.146 156.042 C 181.949 156.042,182.500 155.953,182.500 155.824 C 182.500 155.231,183.535 154.583,184.483 154.583 C 185.819 154.583,186.250 154.859,186.250 155.711 C 186.250 156.544,185.898 156.724,183.542 157.096 C 180.389 157.593,179.583 158.237,179.583 160.257 C 179.583 163.462,184.261 164.287,186.043 161.397 L 186.402 160.815 186.542 161.866 L 186.681 162.917 187.872 162.917 L 189.063 162.917 189.007 159.427 C 188.928 154.398,188.773 153.911,186.996 153.103 C 186.089 152.692,183.544 152.587,182.451 152.916 M222.251 153.020 C 218.506 154.397,217.938 160.285,221.347 162.393 C 223.979 164.020,229.375 162.601,229.375 160.282 C 229.375 159.850,226.697 159.886,226.531 160.320 C 225.981 161.752,222.819 161.439,222.171 159.889 C 221.589 158.495,221.464 158.542,225.753 158.542 L 229.631 158.542 229.485 157.344 C 229.034 153.636,225.813 151.711,222.251 153.020 M250.530 153.030 C 249.261 153.509,248.125 154.780,248.125 155.719 C 248.125 156.346,250.711 156.164,251.006 155.517 C 251.449 154.543,253.590 154.215,254.375 155.000 C 255.369 155.994,254.753 156.563,252.141 157.065 C 248.704 157.727,247.916 158.321,247.917 160.250 C 247.920 163.249,252.925 164.272,254.371 161.570 C 254.789 160.788,255.000 160.925,255.000 161.979 L 255.000 162.917 256.207 162.917 L 257.414 162.917 257.335 159.010 C 257.244 154.529,257.085 153.961,255.716 153.243 C 254.655 152.686,251.753 152.567,250.530 153.030 M148.750 157.917 L 148.750 162.917 150.104 162.917 L 151.458 162.917 151.458 157.917 L 151.458 152.917 150.104 152.917 L 148.750 152.917 148.750 157.917 M166.042 157.917 L 166.042 162.917 167.500 162.917 L 168.958 162.917 168.958 157.917 L 168.958 152.917 167.500 152.917 L 166.042 152.917 166.042 157.917 M231.458 157.917 L 231.458 162.917 232.917 162.917 L 234.375 162.917 234.375 160.260 C 234.376 156.534,234.891 155.635,237.031 155.628 L 237.917 155.625 237.917 154.271 L 237.917 152.917 236.958 152.917 C 235.982 152.917,235.161 153.496,234.439 154.693 C 234.226 155.046,234.189 154.951,234.179 154.010 L 234.167 152.917 232.813 152.917 L 231.458 152.917 231.458 157.917 M225.809 154.923 C 226.211 155.205,226.875 156.351,226.875 156.764 C 226.875 156.825,225.750 156.875,224.375 156.875 C 223.000 156.875,221.875 156.825,221.875 156.764 C 221.875 155.637,223.082 154.583,224.375 154.583 C 224.915 154.583,225.533 154.730,225.809 154.923 M212.980 155.014 C 215.261 155.647,215.216 160.214,212.923 160.832 C 210.740 161.419,209.375 160.285,209.375 157.883 C 209.375 155.519,210.778 154.403,212.980 155.014 M186.248 158.864 C 185.961 160.762,183.518 162.014,182.587 160.741 C 181.835 159.712,182.439 158.889,184.303 158.403 C 184.973 158.229,185.659 158.009,185.829 157.914 C 186.319 157.641,186.405 157.836,186.248 158.864 M254.787 158.281 C 254.769 160.485,252.540 161.982,251.110 160.751 C 250.415 160.154,250.579 159.255,251.461 158.820 C 251.910 158.599,254.188 157.822,254.635 157.738 C 254.721 157.722,254.790 157.966,254.787 158.281 " stroke="none" fill="#77b7d3" fill-rule="evenodd"></path>
        <path id="path1" d="M0.000 112.500 L 0.000 225.000 200.000 225.000 L 400.000 225.000 400.000 112.500 L 400.000 0.000 200.000 0.000 L 0.000 0.000 0.000 112.500 M162.712 55.945 C 177.785 57.196,181.568 58.908,192.344 69.352 L 194.792 71.724 194.792 105.237 C 194.792 123.669,194.721 138.749,194.635 138.748 C 194.549 138.747,193.917 138.263,193.229 137.672 C 180.385 126.637,175.465 124.504,159.688 123.132 C 158.313 123.013,156.695 122.862,156.094 122.797 L 155.000 122.678 155.000 89.152 L 155.000 55.625 156.931 55.625 C 157.992 55.625,160.594 55.769,162.712 55.945 M240.208 89.157 L 240.208 122.689 239.531 122.790 C 239.159 122.845,237.495 122.997,235.833 123.127 C 223.706 124.079,218.795 125.427,212.708 129.475 C 209.051 131.907,201.910 137.392,201.047 138.432 C 200.901 138.607,200.700 138.750,200.599 138.750 C 200.495 138.750,200.417 124.324,200.417 105.239 L 200.417 71.728 203.177 69.040 C 209.325 63.054,214.332 59.444,218.172 58.228 C 222.282 56.927,231.413 55.727,237.760 55.653 L 240.208 55.625 240.208 89.157 M152.448 60.740 C 152.655 60.804,152.708 67.455,152.708 93.088 L 152.708 125.356 155.112 125.499 C 162.948 125.968,171.368 127.476,174.944 129.052 C 178.123 130.453,184.527 134.137,187.963 136.541 L 189.780 137.813 190.713 140.722 C 191.226 142.323,191.610 143.668,191.566 143.712 C 191.522 143.756,189.722 142.855,187.566 141.711 C 178.788 137.051,173.563 134.599,169.583 133.272 C 165.905 132.046,153.356 129.005,147.708 127.971 L 146.771 127.799 146.718 94.107 L 146.665 60.415 149.426 60.537 C 150.945 60.605,152.305 60.696,152.448 60.740 M248.490 94.093 L 248.438 127.769 246.458 128.166 C 227.454 131.985,222.700 133.658,206.688 142.165 C 205.039 143.042,203.661 143.730,203.626 143.695 C 203.591 143.661,203.980 142.323,204.490 140.722 L 205.417 137.813 206.927 136.745 C 217.947 128.954,224.494 126.684,239.114 125.583 L 242.499 125.328 242.551 93.029 L 242.604 60.729 244.688 60.613 C 245.833 60.550,247.170 60.479,247.657 60.457 L 248.543 60.417 248.490 94.093 M142.469 66.176 L 143.750 66.309 143.750 98.244 L 143.750 130.178 144.844 130.290 C 145.445 130.352,147.484 130.549,149.375 130.727 C 160.954 131.821,172.310 135.397,180.587 140.555 C 181.943 141.400,185.489 145.229,185.177 145.511 C 185.027 145.646,167.991 139.617,162.708 137.558 C 157.113 135.378,152.046 134.389,142.083 133.534 C 140.536 133.401,139.201 133.249,139.115 133.196 C 138.922 133.078,138.904 66.373,139.097 66.181 C 139.273 66.005,140.812 66.002,142.469 66.176 M256.199 99.572 C 256.228 117.957,256.176 133.074,256.085 133.165 C 255.994 133.256,254.704 133.426,253.220 133.542 C 243.935 134.268,238.085 135.380,232.917 137.401 C 228.175 139.256,211.733 145.083,210.441 145.367 C 209.618 145.548,212.672 141.849,214.205 140.807 C 217.125 138.824,228.554 133.889,232.917 132.727 C 236.453 131.786,247.444 130.289,251.406 130.209 C 251.435 130.209,251.458 115.823,251.458 98.241 L 251.458 66.274 252.344 66.190 C 252.831 66.144,253.885 66.115,254.688 66.126 L 256.146 66.146 256.199 99.572 M209.375 151.601 L 209.375 154.245 209.948 153.710 C 212.166 151.641,215.795 152.407,217.067 155.212 C 219.448 160.460,213.919 165.827,209.948 162.123 L 209.375 161.589 209.375 162.253 L 209.375 162.917 207.917 162.917 L 206.458 162.917 206.458 155.938 L 206.458 148.958 207.917 148.958 L 209.375 148.958 209.375 151.601 M140.833 155.000 L 140.833 160.417 143.958 160.417 L 147.083 160.417 147.083 161.667 L 147.083 162.917 142.396 162.917 L 137.708 162.917 137.708 156.250 L 137.708 149.583 139.271 149.583 L 140.833 149.583 140.833 155.000 M151.667 150.634 L 151.667 151.684 150.052 151.623 L 148.438 151.563 148.371 150.866 C 148.256 149.668,148.370 149.583,150.098 149.583 L 151.667 149.583 151.667 150.634 M169.167 150.625 L 169.167 151.667 167.500 151.667 L 165.833 151.667 165.833 150.625 L 165.833 149.583 167.500 149.583 L 169.167 149.583 169.167 150.625 M201.588 153.958 C 202.412 156.307,203.462 159.288,203.920 160.581 L 204.753 162.934 203.158 162.873 L 201.563 162.813 201.120 161.563 L 200.678 160.313 197.712 160.313 L 194.746 160.313 194.280 161.563 L 193.814 162.813 192.226 162.873 L 190.637 162.934 190.961 162.040 C 191.138 161.548,192.171 158.622,193.256 155.537 C 194.341 152.451,195.278 149.847,195.339 149.749 C 195.400 149.650,196.493 149.596,197.769 149.629 L 200.089 149.688 201.588 153.958 M175.167 151.719 L 175.229 152.917 176.677 152.917 L 178.125 152.917 178.125 154.063 L 178.125 155.208 176.667 155.208 L 175.208 155.208 175.208 157.917 L 175.208 160.625 176.458 160.625 L 177.708 160.625 177.708 161.796 L 177.708 162.968 175.860 162.879 C 172.720 162.729,172.270 162.137,172.125 157.969 L 172.029 155.208 171.223 155.208 C 169.850 155.208,169.998 153.774,171.424 153.262 C 172.225 152.974,172.505 152.741,172.794 152.127 C 173.866 149.847,175.058 149.641,175.167 151.719 M243.500 151.719 L 243.562 152.917 245.010 152.917 L 246.458 152.917 246.458 154.063 L 246.458 155.208 245.000 155.208 L 243.542 155.208 243.542 157.917 L 243.542 160.625 244.792 160.625 L 246.042 160.625 246.042 161.796 L 246.042 162.968 244.193 162.879 C 241.054 162.729,240.603 162.137,240.458 157.969 L 240.362 155.208 239.556 155.208 C 238.184 155.208,238.332 153.774,239.757 153.262 C 240.558 152.974,240.839 152.741,241.128 152.127 C 242.200 149.847,243.392 149.641,243.500 151.719 M196.682 154.740 C 196.177 156.201,195.722 157.513,195.672 157.656 C 195.603 157.854,196.096 157.917,197.708 157.917 C 199.321 157.917,199.814 157.854,199.743 157.656 C 199.692 157.513,199.237 156.201,198.731 154.740 C 198.226 153.280,197.765 152.085,197.706 152.084 C 197.648 152.084,197.187 153.279,196.682 154.740 M161.797 153.241 C 163.028 153.834,163.878 154.948,164.085 156.239 L 164.220 157.083 162.752 157.083 C 161.291 157.083,161.282 157.080,161.146 156.461 C 160.844 155.085,158.648 154.469,157.439 155.420 C 156.213 156.385,156.122 159.218,157.284 160.260 C 158.574 161.417,161.250 160.690,161.250 159.183 C 161.250 158.785,161.371 158.750,162.736 158.750 L 164.222 158.750 164.108 159.599 C 163.525 163.940,156.052 164.605,154.040 160.494 C 151.584 155.474,156.632 150.755,161.797 153.241 M187.341 153.166 C 188.780 153.963,188.893 154.349,189.028 158.906 L 189.146 162.917 187.802 162.917 L 186.458 162.917 186.458 161.927 L 186.457 160.938 186.049 161.606 C 184.811 163.637,180.855 163.665,179.743 161.651 C 178.454 159.314,179.855 157.664,183.702 156.988 C 185.764 156.625,186.250 156.389,186.250 155.747 C 186.250 154.311,183.292 154.217,182.705 155.634 C 182.456 156.234,182.410 156.250,180.990 156.250 L 179.531 156.250 179.663 155.590 C 180.185 152.984,184.532 151.611,187.341 153.166 M227.025 153.147 C 228.599 153.909,229.557 155.604,229.574 157.656 L 229.583 158.750 225.833 158.750 L 222.083 158.750 222.083 159.243 C 222.083 161.052,225.233 161.823,226.427 160.305 C 226.895 159.710,229.583 159.504,229.583 160.063 C 229.583 163.201,222.788 164.379,220.338 161.667 C 216.257 157.150,221.499 150.472,227.025 153.147 M254.537 152.718 C 257.043 153.255,257.497 154.268,257.499 159.323 L 257.500 162.917 256.272 162.917 C 254.962 162.917,254.792 162.781,254.792 161.738 C 254.792 161.221,254.789 161.221,254.228 161.887 C 252.174 164.329,247.871 163.198,247.827 160.204 C 247.800 158.315,248.828 157.535,252.080 156.976 C 254.240 156.605,254.583 156.434,254.583 155.729 C 254.583 154.267,251.584 154.303,251.025 155.773 C 250.860 156.208,250.714 156.250,249.376 156.250 L 247.909 156.250 248.046 155.677 C 248.633 153.229,251.284 152.020,254.537 152.718 M238.125 154.138 L 238.125 155.567 236.954 155.688 C 234.840 155.906,234.378 156.781,234.376 160.573 L 234.375 162.917 232.917 162.917 L 231.458 162.917 231.458 157.917 L 231.458 152.917 232.917 152.917 L 234.375 152.917 234.376 153.802 L 234.377 154.688 234.766 154.049 C 235.242 153.268,236.301 152.719,237.344 152.713 L 238.125 152.708 238.125 154.138 M151.667 157.917 L 151.667 162.917 150.104 162.917 L 148.542 162.917 148.542 157.917 L 148.542 152.917 150.104 152.917 L 151.667 152.917 151.667 157.917 M168.958 157.917 L 168.958 162.917 167.500 162.917 L 166.042 162.917 166.042 157.917 L 166.042 152.917 167.500 152.917 L 168.958 152.917 168.958 157.917 M223.224 154.874 C 222.878 155.025,222.479 155.401,222.339 155.709 C 221.824 156.840,221.885 156.875,224.375 156.875 C 226.892 156.875,226.974 156.824,226.360 155.637 C 225.868 154.686,224.449 154.340,223.224 154.874 M210.689 155.210 C 208.405 156.130,209.176 160.547,211.662 160.786 C 213.721 160.984,214.479 160.212,214.479 157.917 C 214.479 155.417,212.927 154.309,210.689 155.210 M184.896 158.263 C 182.506 158.958,181.935 159.528,182.603 160.549 C 183.588 162.052,186.250 160.515,186.250 158.444 C 186.250 157.848,186.300 157.855,184.896 158.263 M252.725 158.451 C 251.066 158.979,250.841 159.169,250.837 160.045 C 250.833 160.710,251.331 161.042,252.336 161.042 C 253.566 161.042,254.583 159.915,254.583 158.552 C 254.583 157.813,254.704 157.820,252.725 158.451 " stroke="none" fill="#fbfbfb" fill-rule="evenodd"></path>
        <path id="path2" d="M139.218 99.720 C 139.265 129.286,139.307 133.195,139.583 133.233 C 139.755 133.257,140.786 133.341,141.875 133.419 C 150.177 134.020,157.114 135.268,161.318 136.917 C 165.846 138.693,174.127 141.666,183.301 144.808 C 184.258 145.136,184.954 145.290,184.849 145.150 C 181.495 140.703,179.685 139.569,169.375 135.453 C 161.522 132.318,157.078 131.362,146.719 130.582 L 143.542 130.343 143.542 98.297 L 143.542 66.250 141.354 66.250 L 139.165 66.250 139.218 99.720 M251.667 98.305 L 251.667 130.360 249.427 130.502 C 237.355 131.267,229.593 133.282,218.754 138.466 C 213.813 140.830,213.471 141.102,210.349 145.166 C 210.213 145.343,210.530 145.293,211.269 145.020 C 211.889 144.792,214.693 143.812,217.500 142.843 C 224.254 140.511,229.446 138.636,233.054 137.225 C 238.258 135.191,244.376 134.060,253.854 133.379 L 255.938 133.229 255.990 99.740 L 256.043 66.250 253.855 66.250 L 251.667 66.250 251.667 98.305 " stroke="none" fill="#142444" fill-rule="evenodd"></path>
        <path id="path3" d="M158.385 55.774 C 158.701 55.822,159.216 55.822,159.531 55.774 C 159.846 55.726,159.589 55.687,158.958 55.687 C 158.328 55.687,158.070 55.726,158.385 55.774 M235.677 55.774 C 235.992 55.822,236.508 55.822,236.823 55.774 C 237.138 55.726,236.880 55.687,236.250 55.687 C 235.620 55.687,235.362 55.726,235.677 55.774 M161.510 55.977 C 161.711 56.029,162.039 56.029,162.240 55.977 C 162.440 55.925,162.276 55.882,161.875 55.882 C 161.474 55.882,161.310 55.925,161.510 55.977 M232.969 55.977 C 233.169 56.029,233.497 56.029,233.698 55.977 C 233.898 55.925,233.734 55.882,233.333 55.882 C 232.932 55.882,232.768 55.925,232.969 55.977 M164.117 56.189 C 164.376 56.239,164.751 56.237,164.950 56.185 C 165.150 56.133,164.938 56.092,164.479 56.094 C 164.021 56.097,163.858 56.139,164.117 56.189 M230.367 56.189 C 230.626 56.239,231.001 56.237,231.200 56.185 C 231.400 56.133,231.188 56.092,230.729 56.094 C 230.271 56.097,230.108 56.139,230.367 56.189 M147.138 60.566 C 147.455 60.614,147.924 60.613,148.180 60.563 C 148.436 60.514,148.177 60.475,147.604 60.476 C 147.031 60.478,146.822 60.518,147.138 60.566 M247.138 60.566 C 247.455 60.614,247.924 60.613,248.180 60.563 C 248.436 60.514,248.177 60.475,247.604 60.476 C 247.031 60.478,246.822 60.518,247.138 60.566 M151.198 60.772 C 151.456 60.822,151.878 60.822,152.135 60.772 C 152.393 60.722,152.182 60.682,151.667 60.682 C 151.151 60.682,150.940 60.722,151.198 60.772 M243.073 60.772 C 243.331 60.822,243.753 60.822,244.010 60.772 C 244.268 60.722,244.057 60.682,243.542 60.682 C 243.026 60.682,242.815 60.722,243.073 60.772 M206.549 65.885 L 205.938 66.563 206.615 65.951 C 206.987 65.614,207.292 65.309,207.292 65.274 C 207.292 65.113,207.120 65.254,206.549 65.885 M139.060 99.688 C 139.060 118.135,139.085 125.651,139.115 116.390 C 139.145 107.128,139.145 92.034,139.115 82.848 C 139.085 73.662,139.060 81.240,139.060 99.688 M143.643 98.229 C 143.643 115.875,143.668 123.063,143.698 114.202 C 143.728 105.342,143.728 90.904,143.698 82.119 C 143.668 73.334,143.643 80.583,143.643 98.229 M251.560 98.229 C 251.560 115.875,251.584 123.063,251.615 114.202 C 251.645 105.342,251.645 90.904,251.615 82.119 C 251.584 73.334,251.560 80.583,251.560 98.229 M256.143 99.688 C 256.143 118.135,256.168 125.651,256.198 116.390 C 256.228 107.128,256.228 92.034,256.198 82.848 C 256.168 73.662,256.143 81.240,256.143 99.688 M204.375 67.813 C 203.869 68.328,203.502 68.750,203.559 68.750 C 203.616 68.750,204.077 68.328,204.583 67.813 C 205.089 67.297,205.457 66.875,205.399 66.875 C 205.342 66.875,204.881 67.297,204.375 67.813 M192.449 69.588 L 194.586 71.780 194.533 105.265 C 194.503 123.682,194.549 138.750,194.635 138.750 C 194.721 138.750,194.792 123.678,194.792 105.257 L 194.792 71.763 192.552 69.580 L 190.313 67.396 192.449 69.588 M200.468 105.156 C 200.440 123.633,200.496 138.750,200.593 138.750 C 200.690 138.750,200.947 138.539,201.166 138.281 L 201.563 137.813 201.094 138.209 L 200.626 138.605 200.573 105.084 L 200.520 71.563 200.468 105.156 M156.302 122.852 C 156.503 122.904,156.831 122.904,157.031 122.852 C 157.232 122.800,157.068 122.757,156.667 122.757 C 156.266 122.757,156.102 122.800,156.302 122.852 M238.281 122.855 C 238.539 122.905,238.961 122.905,239.219 122.855 C 239.477 122.806,239.266 122.765,238.750 122.765 C 238.234 122.765,238.023 122.806,238.281 122.855 M158.802 123.060 C 159.003 123.113,159.331 123.113,159.531 123.060 C 159.732 123.008,159.568 122.965,159.167 122.965 C 158.766 122.965,158.602 123.008,158.802 123.060 M235.575 123.064 C 235.834 123.114,236.209 123.112,236.409 123.060 C 236.608 123.008,236.396 122.967,235.938 122.969 C 235.479 122.972,235.316 123.014,235.575 123.064 M233.385 123.269 C 233.586 123.321,233.914 123.321,234.115 123.269 C 234.315 123.216,234.151 123.173,233.750 123.173 C 233.349 123.173,233.185 123.216,233.385 123.269 M154.534 125.564 C 154.793 125.614,155.168 125.612,155.367 125.560 C 155.566 125.508,155.354 125.467,154.896 125.469 C 154.438 125.472,154.275 125.514,154.534 125.564 M239.950 125.564 C 240.209 125.614,240.584 125.612,240.784 125.560 C 240.983 125.508,240.771 125.467,240.313 125.469 C 239.854 125.472,239.691 125.514,239.950 125.564 M137.801 156.250 C 137.801 159.974,137.830 161.497,137.864 159.635 C 137.899 157.773,137.899 154.727,137.864 152.865 C 137.830 151.003,137.801 152.526,137.801 156.250 M165.871 150.573 L 165.833 151.667 167.552 151.625 L 169.271 151.583 167.667 151.512 L 166.064 151.441 165.986 150.460 L 165.908 149.479 165.871 150.573 M148.417 150.676 L 148.438 151.563 150.053 151.577 L 151.668 151.591 150.116 151.516 L 148.565 151.441 148.481 150.615 L 148.397 149.789 148.417 150.676 M174.365 150.533 C 174.944 150.643,174.985 150.717,175.059 151.784 L 175.138 152.919 175.121 151.720 L 175.104 150.521 174.427 150.469 C 173.778 150.419,173.775 150.422,174.365 150.533 M242.698 150.533 C 243.277 150.643,243.318 150.717,243.393 151.784 L 243.472 152.919 243.455 151.720 L 243.438 150.521 242.760 150.469 C 242.111 150.419,242.109 150.422,242.698 150.533 M158.492 152.647 C 158.751 152.697,159.126 152.695,159.325 152.643 C 159.525 152.591,159.313 152.550,158.854 152.553 C 158.396 152.555,158.233 152.598,158.492 152.647 M184.010 152.649 C 184.326 152.697,184.841 152.697,185.156 152.649 C 185.471 152.601,185.214 152.562,184.583 152.562 C 183.953 152.562,183.695 152.601,184.010 152.649 M212.552 152.644 C 212.753 152.696,213.081 152.696,213.281 152.644 C 213.482 152.591,213.318 152.548,212.917 152.548 C 212.516 152.548,212.352 152.591,212.552 152.644 M223.906 152.647 C 224.164 152.697,224.586 152.697,224.844 152.647 C 225.102 152.597,224.891 152.557,224.375 152.557 C 223.859 152.557,223.648 152.597,223.906 152.647 M252.344 152.649 C 252.659 152.697,253.174 152.697,253.490 152.649 C 253.805 152.601,253.547 152.562,252.917 152.562 C 252.286 152.562,252.029 152.601,252.344 152.649 M237.126 152.860 L 237.898 152.941 237.971 154.335 L 238.043 155.729 238.084 154.219 L 238.125 152.708 237.240 152.743 L 236.354 152.778 237.126 152.860 M148.632 157.917 C 148.632 160.724,148.661 161.872,148.697 160.469 C 148.733 159.065,148.733 156.768,148.697 155.365 C 148.661 153.961,148.632 155.109,148.632 157.917 M151.548 157.917 C 151.548 160.724,151.578 161.872,151.614 160.469 C 151.650 159.065,151.650 156.768,151.614 155.365 C 151.578 153.961,151.548 155.109,151.548 157.917 M177.917 153.949 L 177.917 154.981 176.510 155.043 L 175.104 155.104 175.094 157.761 L 175.085 160.417 175.153 157.813 L 175.221 155.208 176.673 155.208 L 178.125 155.208 178.125 154.063 C 178.125 153.432,178.078 152.917,178.021 152.917 C 177.964 152.917,177.917 153.381,177.917 153.949 M234.167 153.958 C 234.167 154.569,234.233 155.003,234.314 154.922 C 234.463 154.773,234.411 153.096,234.252 152.934 C 234.205 152.886,234.167 153.347,234.167 153.958 M246.250 153.949 L 246.250 154.981 244.844 155.043 L 243.438 155.104 243.428 157.761 L 243.418 160.417 243.486 157.813 L 243.554 155.208 245.006 155.208 L 246.458 155.208 246.458 154.063 C 246.458 153.432,246.411 152.917,246.354 152.917 C 246.297 152.917,246.250 153.381,246.250 153.949 M171.242 155.147 L 172.070 155.232 172.139 157.512 L 172.209 159.792 172.198 157.448 L 172.188 155.104 171.301 155.084 L 170.414 155.063 171.242 155.147 M239.575 155.147 L 240.403 155.232 240.473 157.512 L 240.542 159.792 240.532 157.448 L 240.521 155.104 239.634 155.084 L 238.747 155.063 239.575 155.147 M179.608 155.781 C 179.584 156.230,179.648 156.248,181.094 156.209 L 182.604 156.168 181.211 156.096 C 180.113 156.039,179.799 155.948,179.725 155.668 C 179.658 155.412,179.625 155.443,179.608 155.781 M257.376 158.542 C 257.376 160.318,257.407 161.044,257.447 160.156 C 257.486 159.268,257.486 157.815,257.447 156.927 C 257.407 156.039,257.376 156.766,257.376 158.542 M250.833 155.816 C 250.833 156.006,250.439 156.057,249.375 156.007 C 248.572 155.969,247.916 156.008,247.916 156.094 C 247.917 156.339,250.792 156.277,250.946 156.028 C 251.022 155.906,251.027 155.749,250.958 155.681 C 250.890 155.612,250.833 155.673,250.833 155.816 M161.927 157.027 C 162.357 157.072,163.060 157.072,163.490 157.027 C 163.919 156.982,163.568 156.945,162.708 156.945 C 161.849 156.945,161.497 156.982,161.927 157.027 M219.021 157.917 C 219.021 158.547,219.060 158.805,219.108 158.490 C 219.155 158.174,219.155 157.659,219.108 157.344 C 219.060 157.029,219.021 157.286,219.021 157.917 M254.539 158.333 C 254.589 158.677,254.667 158.958,254.711 158.958 C 254.755 158.958,254.792 158.677,254.792 158.333 C 254.792 157.990,254.714 157.708,254.619 157.708 C 254.525 157.708,254.488 157.990,254.539 158.333 M221.899 159.010 C 221.917 159.356,221.948 159.384,222.018 159.119 C 222.102 158.798,222.517 158.753,225.900 158.698 L 229.688 158.636 225.781 158.589 L 221.875 158.542 221.899 159.010 M179.432 160.208 C 179.432 160.724,179.472 160.935,179.522 160.677 C 179.572 160.419,179.572 159.997,179.522 159.740 C 179.472 159.482,179.432 159.693,179.432 160.208 M227.911 159.947 C 228.653 159.988,229.331 160.134,229.418 160.272 C 229.526 160.440,229.578 160.403,229.580 160.156 C 229.583 159.839,229.389 159.797,228.073 159.832 L 226.563 159.872 227.911 159.947 M142.344 160.572 C 143.232 160.611,144.685 160.611,145.573 160.572 C 146.461 160.532,145.734 160.501,143.958 160.501 C 142.182 160.501,141.456 160.532,142.344 160.572 M189.015 161.458 C 189.015 161.974,189.056 162.185,189.105 161.927 C 189.155 161.669,189.155 161.247,189.105 160.990 C 189.056 160.732,189.015 160.943,189.015 161.458 M254.752 161.771 C 254.799 162.172,254.874 162.500,254.919 162.500 C 254.963 162.500,255.000 162.172,255.000 161.771 C 255.000 161.370,254.925 161.042,254.834 161.042 C 254.742 161.042,254.705 161.370,254.752 161.771 M158.492 163.272 C 158.751 163.322,159.126 163.320,159.325 163.268 C 159.525 163.216,159.313 163.175,158.854 163.178 C 158.396 163.180,158.233 163.223,158.492 163.272 M212.552 163.269 C 212.753 163.321,213.081 163.321,213.281 163.269 C 213.482 163.216,213.318 163.173,212.917 163.173 C 212.516 163.173,212.352 163.216,212.552 163.269 M223.906 163.272 C 224.164 163.322,224.586 163.322,224.844 163.272 C 225.102 163.222,224.891 163.182,224.375 163.182 C 223.859 163.182,223.648 163.222,223.906 163.272 " stroke="none" fill="#99b9d4" fill-rule="evenodd"></path>
        <path id="path4" d="M139.635 66.191 C 139.951 66.239,140.466 66.239,140.781 66.191 C 141.096 66.143,140.839 66.104,140.208 66.104 C 139.578 66.104,139.320 66.143,139.635 66.191 M254.427 66.191 C 254.742 66.239,255.258 66.239,255.573 66.191 C 255.888 66.143,255.630 66.104,255.000 66.104 C 254.370 66.104,254.112 66.143,254.427 66.191 " stroke="none" fill="#848c9c" fill-rule="evenodd"></path>
    </g>
</svg>