<svg id="svg" version="1.1" xmlns="http://www.w3.org/2000/svg" xmlns:xlink="http://www.w3.org/1999/xlink" width="108" height="57" viewBox="0 0 400 225">
    <g id="svgg">
        <path id="path0" d="M0.000 112.500 L 0.000 225.000 200.000 225.000 L 400.000 225.000 400.000 112.500 L 400.000 0.000 200.000 0.000 L 0.000 0.000 0.000 112.500 M162.612 55.937 C 177.844 57.208,181.630 58.915,192.344 69.351 L 194.792 71.735 194.792 105.364 L 194.792 138.993 193.906 138.238 C 180.114 126.483,175.672 124.522,159.688 123.132 C 158.313 123.013,156.695 122.862,156.094 122.797 L 155.000 122.678 155.000 89.152 L 155.000 55.625 156.935 55.625 C 157.999 55.625,160.554 55.765,162.612 55.937 M240.208 89.157 L 240.208 122.689 239.531 122.793 C 239.159 122.850,238.010 122.952,236.979 123.019 C 220.925 124.067,215.942 126.089,202.975 136.816 C 201.690 137.880,200.588 138.750,200.527 138.750 C 200.466 138.750,200.417 123.670,200.417 105.239 L 200.417 71.728 203.177 69.040 C 208.294 64.058,212.300 60.947,215.994 59.086 C 219.389 57.377,229.726 55.746,237.760 55.653 L 240.208 55.625 240.208 89.157 M151.719 60.624 L 152.708 60.625 152.708 92.913 L 152.708 125.200 153.177 125.295 C 153.435 125.346,155.052 125.494,156.771 125.624 C 170.512 126.657,176.364 128.657,187.223 136.033 L 189.842 137.813 190.757 140.723 C 191.867 144.257,191.924 144.107,189.896 142.969 C 184.289 139.822,174.103 134.854,171.146 133.823 C 166.931 132.354,158.587 130.244,149.583 128.370 L 146.771 127.784 146.718 94.069 L 146.665 60.354 148.697 60.488 C 149.815 60.562,151.174 60.623,151.719 60.624 M248.490 94.098 L 248.438 127.778 244.271 128.657 C 226.282 132.452,222.500 133.805,207.219 141.915 C 205.288 142.940,203.671 143.741,203.626 143.695 C 203.336 143.406,205.402 137.835,205.959 137.404 C 208.968 135.076,216.878 130.458,220.543 128.889 C 224.002 127.409,231.926 126.007,239.583 125.520 C 240.672 125.451,241.773 125.351,242.031 125.297 L 242.500 125.200 242.500 92.921 L 242.500 60.642 244.219 60.572 C 245.164 60.533,246.524 60.482,247.240 60.459 L 248.543 60.417 248.490 94.098 M142.760 66.249 L 143.542 66.250 143.542 98.225 L 143.542 130.200 144.010 130.297 C 144.268 130.351,145.370 130.451,146.458 130.521 C 159.009 131.323,171.098 134.857,180.151 140.370 C 181.917 141.446,185.317 144.960,184.949 145.329 C 184.791 145.487,168.091 139.594,161.875 137.188 C 156.931 135.273,149.953 133.996,141.302 133.421 L 139.167 133.280 139.167 99.631 L 139.167 65.981 140.573 66.114 C 141.346 66.187,142.331 66.248,142.760 66.249 M256.042 99.661 L 256.042 133.280 253.906 133.421 C 245.826 133.958,238.244 135.269,234.271 136.818 C 227.764 139.353,210.418 145.487,210.245 145.314 C 210.205 145.274,210.814 144.435,211.597 143.449 C 213.866 140.591,216.464 139.128,226.096 135.282 C 233.600 132.286,237.913 131.352,247.604 130.624 C 249.323 130.494,250.940 130.346,251.198 130.295 L 251.667 130.200 251.667 98.235 L 251.667 66.270 252.969 66.196 C 253.685 66.155,254.669 66.104,255.156 66.082 L 256.042 66.042 256.042 99.661 M209.375 151.480 L 209.375 154.210 210.098 153.575 C 213.946 150.197,218.873 154.658,217.303 160.097 C 216.386 163.272,212.002 164.408,209.798 162.042 L 209.375 161.588 209.375 162.252 L 209.375 162.917 207.917 162.917 L 206.458 162.917 206.458 155.833 L 206.458 148.750 207.917 148.750 L 209.375 148.750 209.375 151.480 M140.833 155.000 L 140.833 160.417 143.958 160.417 L 147.083 160.417 147.083 161.667 L 147.083 162.917 142.396 162.917 L 137.708 162.917 137.708 156.250 L 137.708 149.583 139.271 149.583 L 140.833 149.583 140.833 155.000 M151.667 150.625 L 151.667 151.667 150.000 151.667 L 148.333 151.667 148.333 150.625 L 148.333 149.583 150.000 149.583 L 151.667 149.583 151.667 150.625 M169.167 150.625 L 169.167 151.667 167.500 151.667 L 165.833 151.667 165.833 150.625 L 165.833 149.583 167.500 149.583 L 169.167 149.583 169.167 150.625 M201.283 152.969 C 201.931 154.831,202.982 157.831,203.618 159.635 L 204.774 162.917 203.116 162.917 C 202.193 162.917,201.458 162.828,201.458 162.716 C 201.458 162.606,201.263 161.994,201.025 161.356 L 200.591 160.197 197.651 160.255 L 194.711 160.313 194.294 161.615 L 193.878 162.917 192.259 162.917 L 190.639 162.917 191.901 159.323 C 192.595 157.346,193.646 154.347,194.237 152.657 L 195.313 149.584 197.709 149.584 L 200.105 149.583 201.283 152.969 M175.208 151.667 L 175.208 152.917 176.667 152.917 L 178.125 152.917 178.125 154.063 L 178.125 155.208 176.667 155.208 L 175.208 155.208 175.208 157.803 L 175.208 160.397 176.510 160.459 L 177.813 160.521 177.876 161.739 L 177.939 162.958 175.963 162.885 C 172.706 162.765,172.235 162.164,172.119 157.980 L 172.043 155.230 171.178 155.167 C 169.738 155.062,169.873 153.830,171.389 153.245 C 172.362 152.869,172.521 152.713,173.042 151.623 C 173.595 150.465,173.650 150.417,174.413 150.417 L 175.208 150.417 175.208 151.667 M243.542 151.667 L 243.542 152.917 245.000 152.917 L 246.458 152.917 246.458 154.063 L 246.458 155.208 245.000 155.208 L 243.542 155.208 243.542 157.803 L 243.542 160.397 244.844 160.459 L 246.146 160.521 246.209 161.739 L 246.272 162.958 244.297 162.885 C 241.040 162.765,240.568 162.164,240.452 157.980 L 240.376 155.230 239.511 155.167 C 238.071 155.062,238.207 153.830,239.722 153.245 C 240.695 152.869,240.854 152.713,241.375 151.623 C 241.929 150.465,241.983 150.417,242.747 150.417 L 243.542 150.417 243.542 151.667 M196.628 154.948 L 195.698 157.604 196.703 157.667 C 197.256 157.702,198.159 157.702,198.709 157.667 L 199.709 157.604 198.773 154.948 C 198.258 153.487,197.774 152.292,197.697 152.292 C 197.620 152.292,197.139 153.487,196.628 154.948 M161.458 152.988 C 163.042 153.656,164.151 155.101,164.162 156.510 C 164.167 157.079,164.157 157.083,162.760 157.081 L 161.354 157.079 161.005 156.249 C 159.757 153.277,155.997 155.405,156.565 158.762 C 156.965 161.134,160.280 161.663,161.069 159.481 L 161.334 158.750 162.826 158.750 L 164.319 158.750 164.174 159.531 C 163.282 164.328,155.613 164.672,153.731 160.000 C 151.872 155.385,156.717 150.988,161.458 152.988 M186.382 152.737 C 188.662 153.311,189.164 154.516,189.166 159.427 L 189.167 162.917 187.813 162.917 L 186.458 162.917 186.458 162.075 L 186.458 161.232 185.677 162.049 C 183.977 163.825,180.499 163.538,179.670 161.553 C 178.618 159.036,179.822 157.635,183.620 156.957 C 186.074 156.519,186.426 156.314,186.137 155.489 C 185.736 154.343,183.155 154.555,182.692 155.773 C 182.468 156.361,179.583 156.526,179.583 155.951 C 179.583 153.548,183.065 151.902,186.382 152.737 M227.045 153.105 C 228.680 153.939,229.583 155.568,229.583 157.680 L 229.583 158.750 225.807 158.750 L 222.031 158.750 222.161 159.427 C 222.481 161.095,225.039 161.714,226.250 160.417 C 226.786 159.842,226.947 159.792,228.231 159.792 L 229.629 159.792 229.486 160.365 C 228.531 164.190,221.536 164.331,219.534 160.565 C 217.033 155.861,222.264 150.666,227.045 153.105 M254.943 152.815 C 257.173 153.477,257.472 154.237,257.551 159.436 L 257.604 162.934 256.250 162.873 L 254.896 162.813 254.831 162.030 L 254.766 161.248 254.233 161.882 C 252.019 164.513,247.443 163.115,247.793 159.913 C 247.988 158.133,249.061 157.424,252.381 156.878 C 254.491 156.532,255.178 155.886,254.333 155.042 C 253.592 154.300,251.042 154.939,251.042 155.866 C 251.042 156.205,250.859 156.250,249.479 156.250 C 247.734 156.250,247.703 156.214,248.308 154.896 C 249.234 152.881,252.119 151.976,254.943 152.815 M238.125 154.143 L 238.125 155.577 236.990 155.719 C 234.853 155.986,234.375 156.923,234.375 160.844 L 234.375 162.917 232.813 162.917 L 231.250 162.917 231.250 157.917 L 231.250 152.917 232.813 152.917 L 234.375 152.917 234.382 153.698 L 234.388 154.479 234.834 153.881 C 235.375 153.155,236.297 152.727,237.344 152.716 L 238.125 152.708 238.125 154.143 M151.667 157.917 L 151.667 162.917 150.104 162.917 L 148.542 162.917 148.542 157.917 L 148.542 152.917 150.104 152.917 L 151.667 152.917 151.667 157.917 M169.167 157.917 L 169.167 162.917 167.604 162.917 L 166.042 162.917 166.042 157.917 L 166.042 152.917 167.604 152.917 L 169.167 152.917 169.167 157.917 M223.705 154.730 C 223.058 154.831,222.083 155.879,222.083 156.474 C 222.083 156.845,222.253 156.875,224.375 156.875 C 226.840 156.875,226.923 156.831,226.444 155.780 C 226.067 154.953,224.971 154.533,223.705 154.730 M210.602 155.300 C 209.031 156.189,209.189 159.944,210.827 160.622 C 213.118 161.571,214.938 159.800,214.477 157.071 C 214.183 155.330,212.173 154.412,210.602 155.300 M185.625 158.105 C 185.453 158.201,184.817 158.396,184.211 158.537 C 182.906 158.843,182.500 159.192,182.500 160.008 C 182.500 161.645,185.222 161.310,185.912 159.587 C 186.459 158.219,186.358 157.694,185.625 158.105 M253.021 158.401 C 251.384 158.838,250.833 159.219,250.833 159.913 C 250.833 161.626,253.781 161.280,254.368 159.499 C 254.840 158.072,254.695 157.954,253.021 158.401 " stroke="none" fill="#4c7ca4" fill-rule="evenodd"></path>
        <path id="path1" d="M155.000 89.136 L 155.000 122.648 157.865 122.894 C 175.474 124.410,179.428 126.036,192.760 137.246 L 194.583 138.778 194.583 105.136 L 194.583 71.494 191.927 69.004 C 182.491 60.160,179.161 58.217,171.354 56.999 C 167.141 56.342,159.248 55.626,156.198 55.625 L 155.000 55.625 155.000 89.136 M233.229 55.947 C 217.526 57.151,213.660 58.850,202.969 69.247 L 200.625 71.526 200.625 105.034 C 200.625 123.463,200.670 138.542,200.724 138.542 C 200.778 138.542,201.786 137.734,202.964 136.747 C 207.350 133.069,213.080 128.964,216.293 127.198 C 219.780 125.281,226.122 123.904,235.000 123.135 C 236.432 123.011,238.190 122.857,238.906 122.792 L 240.208 122.675 240.208 89.150 L 240.208 55.625 238.490 55.650 C 237.544 55.664,235.177 55.798,233.229 55.947 M165.890 150.625 C 165.890 151.141,165.931 151.352,165.980 151.094 C 166.030 150.836,166.030 150.414,165.980 150.156 C 165.931 149.898,165.890 150.109,165.890 150.625 M234.226 153.854 C 234.228 154.427,234.268 154.637,234.316 154.320 C 234.364 154.003,234.363 153.535,234.313 153.278 C 234.264 153.022,234.225 153.281,234.226 153.854 M180.360 156.192 C 180.730 156.238,181.386 156.239,181.818 156.194 C 182.251 156.149,181.948 156.111,181.146 156.110 C 180.344 156.109,179.990 156.146,180.360 156.192 M248.693 156.192 C 249.063 156.238,249.719 156.239,250.152 156.194 C 250.584 156.149,250.281 156.111,249.479 156.110 C 248.677 156.109,248.323 156.146,248.693 156.192 M223.792 158.697 C 224.788 158.735,226.476 158.735,227.542 158.697 C 228.607 158.659,227.792 158.628,225.729 158.628 C 223.667 158.628,222.795 158.659,223.792 158.697 M142.353 160.572 C 143.247 160.611,144.653 160.611,145.478 160.571 C 146.304 160.532,145.573 160.500,143.854 160.500 C 142.135 160.500,141.460 160.533,142.353 160.572 " stroke="none" fill="#7cc3db" fill-rule="evenodd"></path>
        <path id="path2" d="M146.667 94.074 L 146.667 127.679 147.865 127.918 C 167.292 131.794,172.936 133.753,188.009 141.853 C 189.951 142.896,191.557 143.750,191.579 143.750 C 191.900 143.750,189.692 137.929,189.225 137.546 C 186.712 135.487,178.418 130.615,174.765 129.051 C 171.423 127.621,164.868 126.401,156.719 125.692 L 152.708 125.344 152.708 93.104 L 152.708 60.863 151.615 60.751 C 151.013 60.690,149.654 60.601,148.594 60.554 L 146.667 60.469 146.667 94.074 M245.417 60.634 C 244.099 60.713,242.904 60.791,242.760 60.806 C 242.553 60.828,242.500 67.439,242.500 93.093 L 242.500 125.353 239.427 125.600 C 225.062 126.754,220.247 128.280,209.550 135.067 C 205.440 137.674,205.552 137.545,204.500 140.872 L 203.598 143.723 206.539 142.159 C 216.919 136.638,223.035 133.881,228.156 132.416 C 232.406 131.201,247.453 127.708,248.442 127.708 C 248.497 127.708,248.542 112.568,248.542 94.063 C 248.542 62.144,248.523 60.419,248.177 60.453 C 247.977 60.472,246.734 60.554,245.417 60.634 M206.458 155.938 L 206.458 162.917 207.917 162.917 L 209.375 162.917 209.375 162.255 L 209.375 161.594 209.844 162.023 C 213.652 165.505,218.648 161.412,217.270 155.938 C 216.459 152.716,211.492 151.445,209.701 154.002 C 209.398 154.435,209.375 154.273,209.375 151.713 L 209.375 148.958 207.917 148.958 L 206.458 148.958 206.458 155.938 M137.847 149.722 C 137.771 149.799,137.708 152.799,137.708 156.389 L 137.708 162.917 142.396 162.917 L 147.083 162.917 147.083 161.771 L 147.083 160.625 143.958 160.625 L 140.833 160.625 140.833 155.104 L 140.833 149.583 139.410 149.583 C 138.627 149.583,137.924 149.646,137.847 149.722 M148.542 150.625 L 148.542 151.667 150.104 151.667 L 151.667 151.667 151.667 150.625 L 151.667 149.583 150.104 149.583 L 148.542 149.583 148.542 150.625 M166.042 150.634 L 166.042 151.685 167.552 151.624 L 169.063 151.563 169.126 150.573 L 169.189 149.583 167.616 149.583 L 166.042 149.583 166.042 150.634 M195.317 149.948 C 194.957 150.859,190.833 162.664,190.833 162.783 C 190.833 162.856,191.481 162.917,192.273 162.917 L 193.712 162.917 194.198 161.563 L 194.684 160.208 197.759 160.208 C 199.590 160.208,200.833 160.289,200.833 160.409 C 200.833 160.519,201.028 161.129,201.265 161.763 L 201.697 162.917 203.140 162.917 C 203.934 162.917,204.583 162.860,204.583 162.791 C 204.583 162.684,200.505 151.011,200.096 149.948 C 199.974 149.632,199.656 149.583,197.708 149.583 C 195.762 149.583,195.442 149.632,195.317 149.948 M173.021 151.805 C 172.493 152.801,172.251 153.038,171.458 153.340 C 170.610 153.663,170.515 153.769,170.456 154.453 L 170.392 155.208 171.342 155.208 L 172.292 155.208 172.292 157.937 C 172.292 162.044,172.790 162.711,175.985 162.878 L 177.708 162.969 177.708 161.797 L 177.708 160.625 176.458 160.625 L 175.208 160.625 175.208 157.917 L 175.208 155.208 176.563 155.208 L 177.917 155.208 177.917 154.063 L 177.917 152.917 176.563 152.917 L 175.208 152.917 175.208 151.771 L 175.208 150.625 174.427 150.626 C 173.690 150.626,173.610 150.693,173.021 151.805 M241.354 151.805 C 240.826 152.801,240.584 153.038,239.792 153.340 C 238.944 153.663,238.848 153.769,238.790 154.453 L 238.725 155.208 239.675 155.208 L 240.625 155.208 240.625 157.937 C 240.625 162.044,241.123 162.711,244.318 162.878 L 246.042 162.969 246.042 161.797 L 246.042 160.625 244.792 160.625 L 243.542 160.625 243.542 157.917 L 243.542 155.208 244.896 155.208 L 246.250 155.208 246.250 154.063 L 246.250 152.917 244.896 152.917 L 243.542 152.917 243.542 151.771 L 243.542 150.625 242.760 150.626 C 242.024 150.626,241.944 150.693,241.354 151.805 M198.805 154.740 C 199.351 156.315,199.796 157.674,199.795 157.760 C 199.793 157.846,198.854 157.917,197.708 157.917 C 196.563 157.917,195.624 157.846,195.622 157.760 C 195.617 157.476,197.602 151.876,197.708 151.876 C 197.766 151.876,198.259 153.165,198.805 154.740 M156.711 152.970 C 152.647 154.272,152.407 160.768,156.354 162.630 C 159.637 164.178,164.133 162.214,164.162 159.219 C 164.171 158.316,161.556 158.529,161.166 159.463 C 160.420 161.248,157.633 161.459,156.773 159.796 C 156.069 158.434,156.509 155.739,157.524 155.195 C 158.778 154.524,160.673 155.049,161.083 156.181 C 161.334 156.875,161.334 156.875,162.750 156.875 C 164.326 156.875,164.296 156.911,163.834 155.557 C 163.048 153.251,159.668 152.023,156.711 152.970 M181.762 153.201 C 180.688 153.702,180.089 154.381,179.784 155.443 L 179.612 156.042 181.023 156.042 C 182.328 156.042,182.451 156.003,182.672 155.517 C 183.287 154.168,186.250 154.333,186.250 155.715 C 186.250 156.445,185.865 156.641,183.580 157.076 C 180.299 157.701,179.503 158.317,179.503 160.234 C 179.503 163.164,183.570 164.237,185.709 161.870 C 186.381 161.126,186.459 161.089,186.461 161.510 C 186.469 162.751,186.637 162.917,187.889 162.917 L 189.063 162.917 189.006 159.323 C 188.935 154.823,188.896 154.594,188.071 153.817 C 186.748 152.570,183.746 152.278,181.762 153.201 M222.268 152.996 C 218.263 154.427,217.916 160.841,221.746 162.625 C 224.542 163.926,229.375 162.527,229.375 160.416 C 229.375 159.727,226.920 159.807,226.253 160.518 C 224.914 161.943,222.245 161.136,222.043 159.244 L 221.979 158.646 225.810 158.589 L 229.642 158.532 229.516 157.331 C 229.133 153.669,225.861 151.712,222.268 152.996 M236.458 152.921 C 235.997 153.028,235.442 153.413,234.948 153.968 L 234.167 154.845 234.167 153.881 L 234.167 152.917 232.813 152.917 L 231.458 152.917 231.458 157.917 L 231.458 162.917 232.917 162.917 L 234.375 162.917 234.375 160.306 C 234.375 156.572,234.921 155.625,237.073 155.625 L 237.917 155.625 237.917 154.167 C 237.917 152.560,237.936 152.577,236.458 152.921 M250.536 153.018 C 249.480 153.394,248.379 154.504,248.208 155.365 L 248.073 156.042 249.473 156.042 C 250.706 156.042,250.886 155.991,250.983 155.617 C 251.296 154.423,254.161 154.202,254.593 155.339 C 254.987 156.374,254.742 156.530,251.837 157.088 C 248.686 157.693,247.916 158.314,247.917 160.250 C 247.920 163.261,252.737 164.310,254.354 161.651 L 254.758 160.987 254.903 161.952 L 255.047 162.917 256.251 162.917 L 257.454 162.917 257.350 158.906 C 257.230 154.323,257.127 153.978,255.642 153.192 C 254.558 152.619,251.909 152.529,250.536 153.018 M148.542 157.917 L 148.542 162.917 150.000 162.917 L 151.458 162.917 151.458 157.917 L 151.458 152.917 150.000 152.917 L 148.542 152.917 148.542 157.917 M166.042 157.917 L 166.042 162.917 167.500 162.917 L 168.958 162.917 168.958 157.917 L 168.958 152.917 167.500 152.917 L 166.042 152.917 166.042 157.917 M225.930 155.052 C 226.224 155.310,226.551 155.826,226.656 156.198 L 226.846 156.875 224.346 156.875 C 221.587 156.875,221.552 156.849,222.430 155.458 C 223.043 154.485,225.019 154.256,225.930 155.052 M213.592 155.244 C 214.977 155.952,214.917 159.889,213.508 160.643 C 211.378 161.783,209.301 160.262,209.426 157.654 C 209.538 155.311,211.500 154.175,213.592 155.244 M186.002 159.719 C 185.374 160.999,183.788 161.563,182.861 160.834 C 181.701 159.922,182.290 158.928,184.303 158.403 C 184.973 158.229,185.661 158.007,185.833 157.910 C 186.259 157.671,186.378 158.951,186.002 159.719 M254.787 157.969 C 254.747 160.032,253.089 161.622,251.575 161.046 C 249.925 160.419,250.531 159.086,252.813 158.324 C 254.862 157.640,254.793 157.652,254.787 157.969 " stroke="none" fill="#f2f2fb" fill-rule="evenodd"></path>
        <path id="path3" d="M139.167 99.631 L 139.167 133.280 141.302 133.421 C 149.953 133.996,156.931 135.273,161.875 137.188 C 168.091 139.594,184.791 145.487,184.949 145.329 C 185.317 144.960,181.917 141.446,180.151 140.370 C 171.098 134.857,159.009 131.323,146.458 130.521 C 145.370 130.451,144.268 130.351,144.010 130.297 L 143.542 130.200 143.542 98.225 L 143.542 66.250 142.760 66.249 C 142.331 66.248,141.346 66.187,140.573 66.114 L 139.167 65.981 139.167 99.631 M252.969 66.196 L 251.667 66.270 251.667 98.235 L 251.667 130.200 251.198 130.295 C 250.940 130.346,249.323 130.494,247.604 130.624 C 237.913 131.352,233.600 132.286,226.096 135.282 C 216.464 139.128,213.866 140.591,211.597 143.449 C 210.814 144.435,210.205 145.274,210.245 145.314 C 210.418 145.487,227.764 139.353,234.271 136.818 C 238.244 135.269,245.826 133.958,253.906 133.421 L 256.042 133.280 256.042 99.661 L 256.042 66.042 255.156 66.082 C 254.669 66.104,253.685 66.155,252.969 66.196 " stroke="none" fill="#142444" fill-rule="evenodd"></path>
        <path id="path4" d="M158.909 55.772 C 159.168 55.822,159.543 55.820,159.742 55.768 C 159.941 55.716,159.729 55.675,159.271 55.678 C 158.813 55.680,158.650 55.723,158.909 55.772 M235.575 55.772 C 235.834 55.822,236.209 55.820,236.409 55.768 C 236.608 55.716,236.396 55.675,235.938 55.678 C 235.479 55.680,235.316 55.723,235.575 55.772 M147.972 60.566 C 148.288 60.614,148.757 60.613,149.013 60.563 C 149.270 60.514,149.010 60.475,148.438 60.476 C 147.865 60.478,147.655 60.518,147.972 60.566 M246.305 60.566 C 246.622 60.614,247.090 60.613,247.347 60.563 C 247.603 60.514,247.344 60.475,246.771 60.476 C 246.198 60.478,245.988 60.518,246.305 60.566 M190.208 67.357 C 190.208 67.393,190.513 67.697,190.885 68.034 L 191.563 68.646 190.951 67.969 C 190.380 67.338,190.208 67.196,190.208 67.357 M194.685 105.313 C 194.685 123.875,194.710 131.438,194.740 122.119 C 194.770 112.800,194.770 97.613,194.740 88.369 C 194.710 79.125,194.685 86.750,194.685 105.313 M200.467 105.156 C 200.439 123.633,200.487 138.750,200.573 138.750 C 200.714 138.750,200.713 115.708,200.571 83.646 C 200.542 77.000,200.495 86.680,200.467 105.156 M207.135 148.902 C 207.565 148.947,208.268 148.947,208.698 148.902 C 209.128 148.857,208.776 148.820,207.917 148.820 C 207.057 148.820,206.706 148.857,207.135 148.902 M148.396 150.625 C 148.396 151.255,148.435 151.513,148.483 151.198 C 148.530 150.883,148.530 150.367,148.483 150.052 C 148.435 149.737,148.396 149.995,148.396 150.625 M173.906 150.564 C 174.164 150.613,174.586 150.613,174.844 150.564 C 175.102 150.514,174.891 150.473,174.375 150.473 C 173.859 150.473,173.648 150.514,173.906 150.564 M242.240 150.564 C 242.497 150.613,242.919 150.613,243.177 150.564 C 243.435 150.514,243.224 150.473,242.708 150.473 C 242.193 150.473,241.982 150.514,242.240 150.564 M158.385 152.649 C 158.701 152.697,159.216 152.697,159.531 152.649 C 159.846 152.601,159.589 152.562,158.958 152.562 C 158.328 152.562,158.070 152.601,158.385 152.649 M184.844 152.644 C 185.044 152.696,185.372 152.696,185.573 152.644 C 185.773 152.591,185.609 152.548,185.208 152.548 C 184.807 152.548,184.643 152.591,184.844 152.644 M212.555 152.649 C 212.872 152.697,213.340 152.696,213.597 152.647 C 213.853 152.597,213.594 152.558,213.021 152.560 C 212.448 152.561,212.238 152.602,212.555 152.649 M223.802 152.649 C 224.117 152.697,224.633 152.697,224.948 152.649 C 225.263 152.601,225.005 152.562,224.375 152.562 C 223.745 152.562,223.487 152.601,223.802 152.649 M253.177 152.644 C 253.378 152.696,253.706 152.696,253.906 152.644 C 254.107 152.591,253.943 152.548,253.542 152.548 C 253.141 152.548,252.977 152.591,253.177 152.644 M237.987 154.167 C 237.987 155.026,238.023 155.378,238.068 154.948 C 238.113 154.518,238.113 153.815,238.068 153.385 C 238.023 152.956,237.987 153.307,237.987 154.167 M151.548 157.917 C 151.548 160.724,151.578 161.872,151.614 160.469 C 151.650 159.065,151.650 156.768,151.614 155.365 C 151.578 153.961,151.548 155.109,151.548 157.917 M169.048 157.917 C 169.048 160.724,169.078 161.872,169.114 160.469 C 169.150 159.065,169.150 156.768,169.114 155.365 C 169.078 153.961,169.048 155.109,169.048 157.917 M177.981 154.063 C 177.982 154.750,178.021 155.006,178.068 154.632 C 178.114 154.257,178.113 153.695,178.066 153.382 C 178.018 153.069,177.980 153.375,177.981 154.063 M231.340 157.917 C 231.340 160.724,231.370 161.872,231.406 160.469 C 231.442 159.065,231.442 156.768,231.406 155.365 C 231.370 153.961,231.340 155.109,231.340 157.917 M246.315 154.063 C 246.316 154.750,246.355 155.006,246.401 154.632 C 246.447 154.257,246.446 153.695,246.399 153.382 C 246.351 153.069,246.313 153.375,246.315 154.063 M170.289 153.839 C 170.227 154.003,170.210 154.354,170.253 154.620 C 170.310 154.976,170.358 154.898,170.436 154.323 C 170.545 153.514,170.487 153.323,170.289 153.839 M238.623 153.839 C 238.560 154.003,238.544 154.354,238.586 154.620 C 238.643 154.976,238.692 154.898,238.769 154.323 C 238.878 153.514,238.821 153.323,238.623 153.839 M184.115 154.730 C 184.372 154.780,184.794 154.780,185.052 154.730 C 185.310 154.681,185.099 154.640,184.583 154.640 C 184.068 154.640,183.857 154.681,184.115 154.730 M252.448 154.730 C 252.706 154.780,253.128 154.780,253.385 154.730 C 253.643 154.681,253.432 154.640,252.917 154.640 C 252.401 154.640,252.190 154.681,252.448 154.730 M172.164 157.708 C 172.164 159.141,172.197 159.727,172.238 159.010 C 172.278 158.294,172.278 157.122,172.238 156.406 C 172.197 155.690,172.164 156.276,172.164 157.708 M240.497 157.708 C 240.497 159.141,240.530 159.727,240.571 159.010 C 240.612 158.294,240.612 157.122,240.571 156.406 C 240.530 155.690,240.497 156.276,240.497 157.708 M257.373 157.917 C 257.373 159.464,257.406 160.096,257.446 159.323 C 257.486 158.549,257.486 157.284,257.446 156.510 C 257.406 155.737,257.373 156.370,257.373 157.917 M189.042 158.750 C 189.042 160.526,189.074 161.253,189.113 160.365 C 189.152 159.477,189.152 158.023,189.113 157.135 C 189.074 156.247,189.042 156.974,189.042 158.750 M161.927 157.027 C 162.357 157.072,163.060 157.072,163.490 157.027 C 163.919 156.982,163.568 156.945,162.708 156.945 C 161.849 156.945,161.497 156.982,161.927 157.027 M153.390 157.917 C 153.390 158.432,153.431 158.643,153.480 158.385 C 153.530 158.128,153.530 157.706,153.480 157.448 C 153.431 157.190,153.390 157.401,153.390 157.917 M217.548 157.917 C 217.548 158.318,217.591 158.482,217.644 158.281 C 217.696 158.081,217.696 157.753,217.644 157.552 C 217.591 157.352,217.548 157.516,217.548 157.917 M196.615 157.862 C 197.216 157.904,198.201 157.904,198.802 157.862 C 199.404 157.820,198.911 157.785,197.708 157.785 C 196.505 157.785,196.013 157.820,196.615 157.862 M247.761 160.313 C 247.763 160.771,247.806 160.934,247.856 160.675 C 247.906 160.416,247.904 160.041,247.851 159.841 C 247.799 159.642,247.759 159.854,247.761 160.313 M226.594 159.948 C 226.541 160.034,226.981 160.077,227.572 160.045 C 229.487 159.938,229.721 159.855,228.189 159.823 C 227.365 159.806,226.648 159.862,226.594 159.948 M176.396 160.565 L 177.688 160.644 177.767 161.782 L 177.847 162.919 177.830 161.720 L 177.813 160.521 176.458 160.503 L 175.104 160.486 176.396 160.565 M244.729 160.565 L 246.021 160.644 246.101 161.782 L 246.180 162.919 246.163 161.720 L 246.146 160.521 244.792 160.503 L 243.438 160.486 244.729 160.565 M224.117 161.189 C 224.376 161.239,224.751 161.237,224.950 161.185 C 225.150 161.133,224.938 161.092,224.479 161.094 C 224.021 161.097,223.858 161.139,224.117 161.189 M158.385 163.274 C 158.701 163.322,159.216 163.322,159.531 163.274 C 159.846 163.226,159.589 163.187,158.958 163.187 C 158.328 163.187,158.070 163.226,158.385 163.274 M212.555 163.274 C 212.872 163.322,213.340 163.321,213.597 163.272 C 213.853 163.222,213.594 163.183,213.021 163.185 C 212.448 163.186,212.238 163.227,212.555 163.274 M223.910 163.276 C 224.284 163.322,224.847 163.321,225.160 163.274 C 225.473 163.226,225.167 163.188,224.479 163.190 C 223.792 163.191,223.536 163.230,223.910 163.276 " stroke="none" fill="#8ba9c4" fill-rule="evenodd"></path>
    </g>
</svg>