<svg id="logo-licita-gray" version="1.1" xmlns="http://www.w3.org/2000/svg" xmlns:xlink="http://www.w3.org/1999/xlink" width="108" height="57" viewBox="0 0 400 225">
    <g id="svgg">
        <path id="path0" d="M155.000 89.101 L 155.000 122.637 158.177 122.891 C 172.959 124.074,177.955 125.698,186.354 132.051 C 188.637 133.777,193.431 137.656,193.834 138.102 C 194.053 138.344,194.310 138.542,194.407 138.542 C 194.504 138.542,194.583 123.506,194.583 105.129 L 194.583 71.716 191.501 68.723 C 180.822 58.352,176.657 56.755,157.552 55.706 L 155.000 55.566 155.000 89.101 M236.354 55.768 C 217.896 56.977,214.827 58.211,203.177 69.108 L 200.625 71.495 200.625 105.034 L 200.625 138.572 201.223 138.088 C 206.648 133.701,208.108 132.550,209.745 131.373 C 217.957 125.469,222.742 123.976,236.927 122.893 L 240.208 122.642 240.208 89.134 L 240.208 55.625 238.802 55.663 C 238.029 55.683,236.927 55.731,236.354 55.768 M146.667 94.127 L 146.667 127.629 149.948 128.319 C 168.652 132.252,173.265 133.904,188.634 142.175 C 190.232 143.035,191.552 143.717,191.568 143.692 C 191.583 143.667,191.178 142.353,190.668 140.773 L 189.740 137.900 188.047 136.699 C 181.986 132.397,174.971 128.797,170.572 127.730 C 166.548 126.754,156.323 125.417,152.886 125.417 C 152.788 125.417,152.708 110.899,152.708 93.155 L 152.708 60.894 151.302 60.761 C 150.529 60.688,149.169 60.627,148.281 60.626 L 146.667 60.625 146.667 94.127 M243.177 60.792 L 242.500 60.860 242.500 93.138 C 242.500 110.891,242.420 125.417,242.322 125.417 C 238.699 125.417,228.053 126.845,223.957 127.881 C 220.033 128.874,212.021 133.100,206.833 136.914 L 205.437 137.941 204.581 140.659 C 204.109 142.153,203.767 143.420,203.820 143.473 C 203.873 143.526,205.496 142.731,207.427 141.707 C 222.814 133.541,226.720 132.174,246.302 128.103 L 248.542 127.637 248.542 94.118 L 248.542 60.598 246.198 60.662 C 244.909 60.697,243.549 60.755,243.177 60.792 M140.260 66.185 C 140.461 66.238,140.789 66.238,140.990 66.185 C 141.190 66.133,141.026 66.090,140.625 66.090 C 140.224 66.090,140.060 66.133,140.260 66.185 M254.219 66.185 C 254.419 66.238,254.747 66.238,254.948 66.185 C 255.148 66.133,254.984 66.090,254.583 66.090 C 254.182 66.090,254.018 66.133,254.219 66.185 M206.458 155.938 L 206.458 162.917 207.917 162.917 L 209.375 162.917 209.375 162.208 L 209.375 161.499 210.007 162.090 C 213.053 164.935,217.392 162.484,217.395 157.917 C 217.397 153.274,212.766 150.777,209.896 153.874 L 209.375 154.436 209.375 151.697 L 209.375 148.958 207.917 148.958 L 206.458 148.958 206.458 155.938 M137.917 156.250 L 137.917 162.917 142.500 162.917 L 147.083 162.917 147.083 161.771 L 147.083 160.625 143.958 160.625 L 140.833 160.625 140.833 155.104 L 140.833 149.583 139.375 149.583 L 137.917 149.583 137.917 156.250 M148.542 150.521 L 148.542 151.458 150.104 151.458 L 151.667 151.458 151.667 150.521 L 151.667 149.583 150.104 149.583 L 148.542 149.583 148.542 150.521 M166.042 150.512 L 166.042 151.458 167.616 151.458 L 169.191 151.458 169.127 150.573 L 169.063 149.688 167.552 149.626 L 166.042 149.565 166.042 150.512 M195.255 150.156 C 195.144 150.471,194.104 153.417,192.943 156.701 C 191.783 159.986,190.833 162.728,190.833 162.795 C 190.833 162.862,191.479 162.917,192.269 162.917 L 193.704 162.917 194.182 161.563 L 194.660 160.208 197.697 160.208 L 200.733 160.208 201.219 161.563 L 201.704 162.917 203.144 162.917 C 203.936 162.917,204.583 162.878,204.583 162.831 C 204.583 162.783,203.682 160.182,202.581 157.049 C 201.480 153.917,200.440 150.956,200.270 150.469 L 199.961 149.583 197.709 149.583 L 195.457 149.583 195.255 150.156 M173.021 151.805 C 172.493 152.801,172.251 153.038,171.458 153.340 C 170.610 153.663,170.515 153.769,170.456 154.453 L 170.392 155.208 171.342 155.208 L 172.292 155.208 172.292 157.910 C 172.292 162.013,172.776 162.668,175.959 162.866 L 177.708 162.975 177.708 161.800 L 177.708 160.625 176.458 160.625 L 175.208 160.625 175.208 157.917 L 175.208 155.208 176.563 155.208 L 177.917 155.208 177.917 154.063 L 177.917 152.917 176.563 152.917 L 175.208 152.917 175.208 151.771 L 175.208 150.625 174.427 150.626 C 173.690 150.626,173.610 150.693,173.021 151.805 M241.354 151.805 C 240.826 152.801,240.584 153.038,239.792 153.340 C 238.944 153.663,238.848 153.769,238.790 154.453 L 238.725 155.208 239.675 155.208 L 240.625 155.208 240.625 157.910 C 240.625 162.013,241.109 162.668,244.292 162.866 L 246.042 162.975 246.042 161.800 L 246.042 160.625 244.792 160.625 L 243.542 160.625 243.542 157.917 L 243.542 155.208 244.896 155.208 L 246.250 155.208 246.250 154.063 L 246.250 152.917 244.896 152.917 L 243.542 152.917 243.542 151.771 L 243.542 150.625 242.760 150.626 C 242.024 150.626,241.944 150.693,241.354 151.805 M198.810 154.740 C 199.354 156.315,199.797 157.674,199.795 157.760 C 199.789 158.017,195.625 157.949,195.625 157.692 C 195.625 157.340,197.582 151.875,197.708 151.875 C 197.770 151.875,198.266 153.164,198.810 154.740 M156.783 153.007 C 153.981 154.047,152.657 157.654,154.059 160.426 C 156.188 164.632,164.167 163.635,164.167 159.164 C 164.167 158.487,161.387 158.625,161.290 159.307 C 161.035 161.098,157.851 161.552,156.866 159.937 C 155.833 158.243,156.531 155.429,158.087 155.010 C 159.537 154.620,161.250 155.420,161.250 156.487 C 161.250 156.829,161.425 156.875,162.722 156.875 C 164.150 156.875,164.191 156.861,164.060 156.406 C 163.986 156.148,163.875 155.750,163.813 155.521 C 163.238 153.378,159.441 152.020,156.783 153.007 M182.275 152.993 C 179.653 153.931,178.871 156.042,181.146 156.042 C 181.949 156.042,182.500 155.953,182.500 155.824 C 182.500 155.277,183.535 154.583,184.352 154.583 C 187.496 154.583,186.931 156.578,183.646 157.076 C 180.222 157.596,179.465 158.306,179.561 160.906 C 179.658 163.510,184.514 163.878,186.043 161.397 L 186.402 160.815 186.542 161.866 L 186.681 162.917 187.950 162.917 L 189.219 162.917 189.089 162.266 C 189.017 161.908,188.958 160.140,188.958 158.338 C 188.958 154.549,188.769 154.025,187.090 153.177 C 186.013 152.633,183.545 152.539,182.275 152.993 M222.424 152.923 C 218.552 154.083,217.894 160.519,221.447 162.481 C 224.266 164.039,229.375 162.581,229.375 160.219 C 229.375 159.886,226.726 159.937,226.521 160.273 C 225.628 161.737,222.840 161.490,222.171 159.889 C 221.589 158.495,221.464 158.542,225.758 158.542 L 229.641 158.542 229.502 157.360 C 229.077 153.741,226.042 151.839,222.424 152.923 M236.574 152.914 C 235.794 153.064,235.096 153.651,234.439 154.705 C 234.228 155.046,234.189 154.943,234.179 154.010 L 234.167 152.917 232.813 152.917 L 231.458 152.917 231.458 157.917 L 231.458 162.917 232.917 162.917 L 234.375 162.917 234.375 160.306 C 234.375 156.572,234.921 155.625,237.073 155.625 L 237.917 155.625 237.917 154.167 C 237.917 153.126,237.842 152.715,237.656 152.732 C 237.513 152.745,237.026 152.827,236.574 152.914 M250.553 153.002 C 249.303 153.463,248.125 154.782,248.125 155.719 C 248.125 156.346,250.711 156.164,251.006 155.517 C 251.620 154.168,254.792 154.333,254.792 155.714 C 254.792 156.120,254.235 156.646,253.683 156.760 C 253.434 156.812,252.432 157.007,251.458 157.194 C 248.708 157.720,247.916 158.408,247.917 160.270 C 247.920 163.245,252.931 164.260,254.367 161.577 C 254.740 160.880,255.000 161.092,255.000 162.096 L 255.000 162.917 256.207 162.917 L 257.414 162.917 257.335 159.010 C 257.243 154.504,257.087 153.943,255.729 153.242 C 254.668 152.695,251.752 152.560,250.553 153.002 M148.750 157.917 L 148.750 162.917 150.104 162.917 L 151.458 162.917 151.458 157.917 L 151.458 152.917 150.104 152.917 L 148.750 152.917 148.750 157.917 M166.042 157.917 L 166.042 162.917 167.500 162.917 L 168.958 162.917 168.958 157.917 L 168.958 152.917 167.500 152.917 L 166.042 152.917 166.042 157.917 M225.930 155.052 C 226.224 155.310,226.551 155.826,226.656 156.198 L 226.846 156.875 224.360 156.875 C 222.993 156.875,221.875 156.825,221.875 156.764 C 221.875 155.002,224.571 153.864,225.930 155.052 M212.980 155.014 C 215.253 155.645,215.217 160.214,212.934 160.829 C 210.791 161.406,209.375 160.247,209.375 157.917 C 209.375 157.096,209.839 155.440,210.076 155.414 C 210.091 155.412,210.479 155.275,210.938 155.110 C 211.957 154.743,211.996 154.741,212.980 155.014 M186.161 159.262 C 185.764 161.381,182.292 161.943,182.292 159.888 C 182.292 159.231,182.928 158.762,184.303 158.403 C 184.973 158.229,185.661 158.007,185.833 157.910 C 186.212 157.696,186.349 158.261,186.161 159.262 M254.708 158.564 C 254.348 160.817,252.496 161.943,251.110 160.751 C 250.415 160.154,250.579 159.255,251.461 158.820 C 251.940 158.584,254.243 157.805,254.662 157.738 C 254.763 157.722,254.783 158.093,254.708 158.564 " stroke="none" fill="#77b7d3" fill-rule="evenodd"></path>
        <path id="path1" d="M0.000 112.500 L 0.000 225.000 200.000 225.000 L 400.000 225.000 400.000 112.500 L 400.000 0.000 200.000 0.000 L 0.000 0.000 0.000 112.500 M163.089 55.951 C 177.602 57.124,181.707 58.959,191.719 68.750 L 194.808 71.771 194.748 105.383 L 194.688 138.995 193.021 137.570 C 179.840 126.298,174.209 123.998,157.344 122.994 L 155.000 122.854 155.000 89.167 L 155.000 55.480 157.135 55.561 C 158.310 55.606,160.989 55.782,163.089 55.951 M240.208 89.136 L 240.208 122.856 237.779 123.001 C 231.058 123.403,223.598 124.580,219.583 125.873 C 215.828 127.082,209.745 131.144,202.240 137.454 L 200.417 138.987 200.417 105.237 L 200.417 71.488 203.906 68.259 C 211.211 61.501,214.900 59.021,219.465 57.799 C 223.101 56.826,231.756 55.765,237.708 55.562 C 238.682 55.529,239.643 55.482,239.844 55.459 C 240.190 55.419,240.208 57.145,240.208 89.136 M151.719 60.624 L 152.708 60.625 152.708 92.913 L 152.708 125.200 153.177 125.297 C 153.435 125.349,154.583 125.451,155.729 125.523 C 169.974 126.417,176.807 128.753,188.021 136.564 L 189.896 137.870 190.806 140.820 C 191.307 142.442,191.682 143.803,191.640 143.845 C 191.597 143.886,190.719 143.452,189.688 142.880 C 174.529 134.471,167.812 132.066,148.646 128.187 L 146.771 127.807 146.718 94.081 L 146.665 60.354 148.697 60.488 C 149.815 60.562,151.174 60.623,151.719 60.624 M248.490 94.098 L 248.438 127.780 246.667 128.154 C 225.943 132.534,223.013 133.552,207.642 141.711 C 205.486 142.856,203.681 143.750,203.630 143.699 C 203.579 143.648,203.937 142.318,204.425 140.743 L 205.313 137.880 206.667 136.893 C 209.665 134.707,216.095 130.932,219.633 129.282 C 223.472 127.491,229.674 126.283,238.438 125.619 C 240.156 125.489,241.773 125.341,242.031 125.291 L 242.500 125.200 242.500 92.921 L 242.500 60.642 244.219 60.572 C 245.164 60.533,246.524 60.482,247.240 60.459 L 248.543 60.417 248.490 94.098 M142.656 66.177 L 143.750 66.308 143.750 98.258 C 143.750 115.831,143.820 130.209,143.906 130.209 C 146.438 130.226,156.629 131.484,159.998 132.196 C 165.373 133.330,177.541 138.338,181.131 140.892 C 182.206 141.657,185.403 145.302,185.181 145.508 C 185.060 145.620,169.775 140.257,164.479 138.244 C 157.815 135.712,155.272 135.063,148.958 134.285 C 146.322 133.960,139.993 133.335,139.323 133.334 C 138.977 133.333,138.958 131.592,138.958 99.688 L 138.958 66.042 140.260 66.043 C 140.977 66.044,142.055 66.104,142.656 66.177 M256.250 99.688 C 256.250 118.193,256.180 133.334,256.094 133.335 C 255.289 133.341,247.970 134.062,245.490 134.380 C 239.459 135.152,237.419 135.689,230.521 138.314 C 224.862 140.468,210.161 145.626,210.027 145.505 C 209.936 145.423,211.872 142.912,212.797 141.912 C 214.263 140.328,218.284 138.308,226.560 135.001 C 233.782 132.115,237.285 131.415,250.156 130.289 L 251.458 130.175 251.458 98.225 L 251.458 66.275 252.240 66.193 C 252.669 66.148,253.747 66.096,254.635 66.077 L 256.250 66.042 256.250 99.688 M209.375 151.498 L 209.375 154.245 209.798 153.792 C 211.828 151.613,215.755 152.345,217.088 155.150 C 219.598 160.433,213.590 166.112,209.798 162.042 L 209.375 161.588 209.375 162.252 L 209.375 162.917 207.917 162.917 L 206.458 162.917 206.458 155.833 L 206.458 148.750 207.917 148.750 L 209.375 148.750 209.375 151.498 M140.833 155.000 L 140.833 160.417 143.958 160.417 L 147.083 160.417 147.083 161.667 L 147.083 162.917 142.396 162.917 L 137.708 162.917 137.708 156.250 L 137.708 149.583 139.271 149.583 L 140.833 149.583 140.833 155.000 M151.667 150.625 L 151.667 151.667 150.000 151.667 L 148.333 151.667 148.333 150.625 L 148.333 149.583 150.000 149.583 L 151.667 149.583 151.667 150.625 M169.167 150.625 L 169.167 151.667 167.500 151.667 L 165.833 151.667 165.833 150.625 L 165.833 149.583 167.500 149.583 L 169.167 149.583 169.167 150.625 M201.178 152.657 C 201.769 154.347,202.819 157.346,203.511 159.323 L 204.770 162.917 203.114 162.917 C 202.192 162.917,201.458 162.828,201.458 162.716 C 201.458 162.606,201.263 161.994,201.025 161.356 L 200.591 160.197 197.651 160.255 L 194.711 160.313 194.294 161.615 L 193.878 162.917 192.259 162.917 L 190.639 162.917 191.900 159.323 C 192.594 157.346,193.643 154.346,194.232 152.656 L 195.303 149.583 197.704 149.584 L 200.104 149.584 201.178 152.657 M175.208 151.667 L 175.208 152.917 176.667 152.917 L 178.125 152.917 178.125 154.063 L 178.125 155.208 176.667 155.208 L 175.208 155.208 175.208 157.803 L 175.208 160.397 176.510 160.459 L 177.813 160.521 177.876 161.739 L 177.939 162.958 175.963 162.885 C 172.704 162.765,172.235 162.165,172.119 157.969 L 172.042 155.208 171.113 155.208 L 170.183 155.208 170.248 154.433 C 170.308 153.710,170.385 153.630,171.389 153.243 C 172.362 152.869,172.521 152.713,173.042 151.623 C 173.595 150.465,173.650 150.417,174.413 150.417 L 175.208 150.417 175.208 151.667 M243.542 151.667 L 243.542 152.917 245.000 152.917 L 246.458 152.917 246.458 154.063 L 246.458 155.208 245.000 155.208 L 243.542 155.208 243.542 157.803 L 243.542 160.397 244.844 160.459 L 246.146 160.521 246.209 161.739 L 246.272 162.958 244.297 162.885 C 241.038 162.765,240.568 162.165,240.452 157.969 L 240.376 155.208 239.446 155.208 L 238.517 155.208 238.581 154.433 C 238.641 153.710,238.718 153.630,239.722 153.243 C 240.696 152.869,240.854 152.713,241.375 151.623 C 241.929 150.465,241.983 150.417,242.747 150.417 L 243.542 150.417 243.542 151.667 M196.967 154.010 C 196.655 154.956,196.227 156.174,196.016 156.719 L 195.631 157.708 197.678 157.708 L 199.725 157.708 198.784 155.000 C 197.672 151.801,197.693 151.812,196.967 154.010 M161.458 152.988 C 163.042 153.656,164.151 155.101,164.162 156.510 C 164.167 157.079,164.157 157.083,162.760 157.081 L 161.354 157.079 161.005 156.249 C 159.757 153.277,155.997 155.405,156.565 158.762 C 156.965 161.134,160.280 161.663,161.069 159.481 L 161.334 158.750 162.849 158.750 L 164.365 158.750 164.240 159.427 C 163.338 164.309,155.659 164.728,153.734 160.000 C 151.857 155.387,156.707 150.984,161.458 152.988 M186.613 152.816 C 188.756 153.452,189.164 154.510,189.166 159.427 L 189.167 162.917 187.813 162.917 L 186.458 162.917 186.458 162.075 L 186.458 161.232 185.677 162.049 C 183.977 163.825,180.499 163.538,179.670 161.553 C 178.635 159.077,179.830 157.635,183.456 156.985 C 185.751 156.573,186.250 156.371,186.250 155.853 C 186.250 154.335,183.182 154.362,182.642 155.885 C 182.469 156.375,179.583 156.437,179.583 155.951 C 179.583 153.467,183.270 151.823,186.613 152.816 M227.045 153.105 C 228.680 153.939,229.583 155.568,229.583 157.680 L 229.583 158.750 225.833 158.750 C 221.712 158.750,221.743 158.739,222.398 160.004 C 223.053 161.271,225.234 161.504,226.250 160.417 C 226.786 159.842,226.947 159.792,228.231 159.792 L 229.629 159.792 229.486 160.365 C 228.436 164.571,220.629 164.184,219.268 159.857 C 217.725 154.951,222.513 150.794,227.045 153.105 M254.943 152.815 C 257.173 153.477,257.472 154.237,257.551 159.436 L 257.604 162.934 256.250 162.873 L 254.896 162.813 254.831 162.030 L 254.766 161.248 254.233 161.882 C 251.993 164.544,247.399 163.101,247.765 159.851 C 247.955 158.166,249.125 157.413,252.381 156.878 C 254.491 156.532,255.178 155.886,254.333 155.042 C 253.625 154.333,251.042 154.963,251.042 155.845 C 251.042 156.210,250.888 156.250,249.479 156.250 C 247.777 156.250,247.749 156.222,248.237 155.053 C 249.145 152.879,251.977 151.934,254.943 152.815 M238.125 154.143 L 238.125 155.577 236.990 155.719 C 234.853 155.986,234.375 156.923,234.375 160.844 L 234.375 162.917 232.813 162.917 L 231.250 162.917 231.250 157.917 L 231.250 152.917 232.813 152.917 L 234.375 152.917 234.375 153.674 L 234.375 154.431 234.826 153.858 C 235.383 153.150,236.315 152.727,237.344 152.716 L 238.125 152.708 238.125 154.143 M151.667 157.917 L 151.667 162.917 150.104 162.917 L 148.542 162.917 148.542 157.917 L 148.542 152.917 150.104 152.917 L 151.667 152.917 151.667 157.917 M169.167 157.917 L 169.167 162.917 167.604 162.917 L 166.042 162.917 166.042 157.917 L 166.042 152.917 167.604 152.917 L 169.167 152.917 169.167 157.917 M223.705 154.740 C 223.062 154.829,222.083 155.875,222.083 156.474 C 222.083 156.846,222.253 156.875,224.398 156.875 L 226.712 156.875 226.572 156.302 C 226.292 155.153,225.166 154.539,223.705 154.740 M210.602 155.300 C 209.031 156.189,209.189 159.944,210.827 160.622 C 213.118 161.571,214.938 159.800,214.477 157.071 C 214.183 155.330,212.173 154.412,210.602 155.300 M185.625 158.105 C 185.453 158.201,184.817 158.396,184.211 158.537 C 182.906 158.843,182.500 159.192,182.500 160.008 C 182.500 161.645,185.222 161.310,185.912 159.587 C 186.459 158.219,186.358 157.694,185.625 158.105 M254.364 157.995 C 254.300 158.060,253.644 158.266,252.905 158.453 C 251.385 158.838,250.833 159.227,250.833 159.913 C 250.833 161.626,253.781 161.280,254.368 159.499 C 254.604 158.784,254.601 157.753,254.364 157.995 " stroke="none" fill="#f3f3fb" fill-rule="evenodd"></path>
        <path id="path2" d="M139.167 99.632 L 139.167 133.274 141.510 133.421 C 151.224 134.032,156.406 135.091,164.433 138.104 C 171.578 140.786,184.826 145.451,184.949 145.329 C 185.204 145.074,181.976 141.586,180.729 140.768 C 177.615 138.726,166.370 133.918,162.114 132.810 C 158.666 131.912,151.583 130.903,145.625 130.460 L 143.646 130.313 143.593 98.281 L 143.540 66.250 142.005 66.250 C 141.160 66.250,140.176 66.191,139.818 66.120 L 139.167 65.990 139.167 99.632 M253.490 66.197 L 251.668 66.266 251.615 98.289 L 251.563 130.313 248.507 130.555 C 237.769 131.407,233.618 132.298,225.833 135.419 C 215.556 139.540,212.586 141.403,210.362 145.123 C 210.139 145.496,223.852 140.754,231.250 137.900 C 238.126 135.248,244.326 134.011,253.698 133.421 L 256.042 133.274 256.042 99.658 C 256.042 67.765,256.023 66.044,255.677 66.085 C 255.477 66.108,254.492 66.159,253.490 66.197 " stroke="none" fill="#142444" fill-rule="evenodd"></path>
        <path id="path3" d="M147.031 60.564 C 147.289 60.613,147.711 60.613,147.969 60.564 C 148.227 60.514,148.016 60.473,147.500 60.473 C 146.984 60.473,146.773 60.514,147.031 60.564 M247.240 60.564 C 247.497 60.613,247.919 60.613,248.177 60.564 C 248.435 60.514,248.224 60.473,247.708 60.473 C 247.193 60.473,246.982 60.514,247.240 60.564 M151.094 60.769 C 151.294 60.821,151.622 60.821,151.823 60.769 C 152.023 60.716,151.859 60.673,151.458 60.673 C 151.057 60.673,150.893 60.716,151.094 60.769 M139.060 98.333 C 139.060 116.036,139.084 123.279,139.115 114.427 C 139.145 105.576,139.145 91.091,139.115 82.240 C 139.084 73.388,139.060 80.630,139.060 98.333 M143.643 98.229 C 143.643 115.875,143.668 123.063,143.698 114.202 C 143.728 105.342,143.728 90.904,143.698 82.119 C 143.668 73.334,143.643 80.583,143.643 98.229 M251.560 98.229 C 251.560 115.875,251.584 123.063,251.615 114.202 C 251.645 105.342,251.645 90.904,251.615 82.119 C 251.584 73.334,251.560 80.583,251.560 98.229 M204.155 68.073 L 203.438 68.854 204.219 68.136 C 204.946 67.468,205.096 67.292,204.937 67.292 C 204.902 67.292,204.550 67.643,204.155 68.073 M192.813 70.000 C 193.724 70.917,194.516 71.667,194.574 71.667 C 194.631 71.667,193.932 70.917,193.021 70.000 C 192.110 69.083,191.317 68.333,191.260 68.333 C 191.202 68.333,191.901 69.083,192.813 70.000 M139.025 131.875 C 139.025 132.620,139.063 132.924,139.109 132.552 C 139.155 132.180,139.155 131.570,139.109 131.198 C 139.063 130.826,139.025 131.130,139.025 131.875 M137.801 156.250 C 137.801 159.974,137.830 161.497,137.864 159.635 C 137.899 157.773,137.899 154.727,137.864 152.865 C 137.830 151.003,137.801 152.526,137.801 156.250 M165.916 150.521 L 165.938 151.563 167.553 151.577 L 169.168 151.591 167.616 151.516 L 166.064 151.441 165.979 150.460 L 165.895 149.479 165.916 150.521 M149.328 151.611 C 149.818 151.655,150.568 151.655,150.995 151.610 C 151.422 151.565,151.021 151.529,150.104 151.530 C 149.188 151.531,148.838 151.567,149.328 151.611 M184.219 152.644 C 184.419 152.696,184.747 152.696,184.948 152.644 C 185.148 152.591,184.984 152.548,184.583 152.548 C 184.182 152.548,184.018 152.591,184.219 152.644 M252.552 152.644 C 252.753 152.696,253.081 152.696,253.281 152.644 C 253.482 152.591,253.318 152.548,252.917 152.548 C 252.516 152.548,252.352 152.591,252.552 152.644 M148.632 157.917 C 148.632 160.724,148.661 161.872,148.697 160.469 C 148.733 159.065,148.733 156.768,148.697 155.365 C 148.661 153.961,148.632 155.109,148.632 157.917 M151.548 157.917 C 151.548 160.724,151.578 161.872,151.614 160.469 C 151.650 159.065,151.650 156.768,151.614 155.365 C 151.578 153.961,151.548 155.109,151.548 157.917 M177.979 153.958 C 177.979 154.589,178.018 154.846,178.066 154.531 C 178.114 154.216,178.114 153.701,178.066 153.385 C 178.018 153.070,177.979 153.328,177.979 153.958 M234.167 153.958 C 234.167 154.569,234.233 155.003,234.314 154.922 C 234.463 154.773,234.411 153.096,234.252 152.934 C 234.205 152.886,234.167 153.347,234.167 153.958 M237.985 154.271 C 237.986 155.073,238.024 155.376,238.069 154.943 C 238.114 154.511,238.113 153.855,238.067 153.485 C 238.021 153.115,237.984 153.469,237.985 154.271 M246.312 153.958 C 246.312 154.589,246.351 154.846,246.399 154.531 C 246.447 154.216,246.447 153.701,246.399 153.385 C 246.351 153.070,246.312 153.328,246.312 153.958 M172.160 157.292 C 172.160 158.495,172.195 158.987,172.237 158.385 C 172.279 157.784,172.279 156.799,172.237 156.198 C 172.195 155.596,172.160 156.089,172.160 157.292 M240.494 157.292 C 240.494 158.495,240.528 158.987,240.570 158.385 C 240.612 157.784,240.612 156.799,240.570 156.198 C 240.528 155.596,240.494 156.089,240.494 157.292 M179.587 155.885 C 179.584 156.203,179.778 156.245,181.094 156.210 L 182.604 156.170 181.255 156.095 C 180.514 156.053,179.835 155.907,179.748 155.770 C 179.641 155.601,179.589 155.639,179.587 155.885 M250.833 155.799 C 250.833 155.956,250.337 156.056,249.427 156.082 L 248.021 156.122 249.354 156.197 C 250.590 156.266,251.319 156.042,250.976 155.698 C 250.897 155.620,250.833 155.665,250.833 155.799 M257.374 158.750 C 257.374 160.411,257.407 161.091,257.446 160.260 C 257.486 159.430,257.486 158.070,257.446 157.240 C 257.407 156.409,257.374 157.089,257.374 158.750 M162.027 157.025 C 162.396 157.071,163.053 157.072,163.485 157.027 C 163.917 156.982,163.615 156.944,162.813 156.943 C 162.010 156.942,161.657 156.979,162.027 157.025 M219.015 157.917 C 219.015 158.432,219.056 158.643,219.105 158.385 C 219.155 158.128,219.155 157.706,219.105 157.448 C 219.056 157.190,219.015 157.401,219.015 157.917 M254.532 158.229 C 254.587 158.516,254.668 158.750,254.712 158.750 C 254.756 158.750,254.792 158.516,254.792 158.229 C 254.792 157.943,254.711 157.708,254.612 157.708 C 254.514 157.708,254.478 157.943,254.532 158.229 M223.813 158.697 C 224.936 158.735,226.717 158.734,227.771 158.697 C 228.825 158.659,227.906 158.628,225.729 158.629 C 223.552 158.629,222.690 158.660,223.813 158.697 M227.188 159.915 C 228.163 160.072,229.536 160.092,229.447 159.948 C 229.394 159.862,228.770 159.804,228.061 159.820 C 227.351 159.836,226.958 159.879,227.188 159.915 M142.344 160.572 C 143.232 160.611,144.685 160.611,145.573 160.572 C 146.461 160.532,145.734 160.501,143.958 160.501 C 142.182 160.501,141.456 160.532,142.344 160.572 " stroke="none" fill="#98bad4" fill-rule="evenodd"></path>
        <path id="path4" d="M159.010 55.774 C 159.326 55.822,159.841 55.822,160.156 55.774 C 160.471 55.726,160.214 55.687,159.583 55.687 C 158.953 55.687,158.695 55.726,159.010 55.774 M235.052 55.774 C 235.367 55.822,235.883 55.822,236.198 55.774 C 236.513 55.726,236.255 55.687,235.625 55.687 C 234.995 55.687,234.737 55.726,235.052 55.774 M162.031 55.980 C 162.289 56.030,162.711 56.030,162.969 55.980 C 163.227 55.931,163.016 55.890,162.500 55.890 C 161.984 55.890,161.773 55.931,162.031 55.980 M232.240 55.980 C 232.497 56.030,232.919 56.030,233.177 55.980 C 233.435 55.931,233.224 55.890,232.708 55.890 C 232.193 55.890,231.982 55.931,232.240 55.980 M164.635 56.185 C 164.836 56.238,165.164 56.238,165.365 56.185 C 165.565 56.133,165.401 56.090,165.000 56.090 C 164.599 56.090,164.435 56.133,164.635 56.185 M256.143 99.688 C 256.143 118.250,256.168 125.813,256.198 116.494 C 256.228 107.175,256.228 91.988,256.198 82.744 C 256.168 73.500,256.143 81.125,256.143 99.688 M190.313 67.500 C 190.760 67.958,191.173 68.333,191.230 68.333 C 191.288 68.333,190.968 67.958,190.521 67.500 C 190.073 67.042,189.660 66.667,189.603 66.667 C 189.546 66.667,189.865 67.042,190.313 67.500 M201.608 70.371 L 200.417 71.575 200.417 105.301 C 200.417 123.851,200.465 138.980,200.523 138.921 C 200.582 138.862,200.628 123.686,200.626 105.196 L 200.623 71.577 201.815 70.372 C 202.471 69.709,202.961 69.167,202.904 69.167 C 202.846 69.167,202.263 69.708,201.608 70.371 M194.685 105.313 C 194.685 123.875,194.710 131.438,194.740 122.119 C 194.770 112.800,194.770 97.613,194.740 88.369 C 194.710 79.125,194.685 86.750,194.685 105.313 M155.365 122.855 C 155.622 122.905,156.044 122.905,156.302 122.855 C 156.560 122.806,156.349 122.765,155.833 122.765 C 155.318 122.765,155.107 122.806,155.365 122.855 M239.219 122.852 C 239.419 122.904,239.747 122.904,239.948 122.852 C 240.148 122.800,239.984 122.757,239.583 122.757 C 239.182 122.757,239.018 122.800,239.219 122.852 M158.177 123.060 C 158.378 123.113,158.706 123.113,158.906 123.060 C 159.107 123.008,158.943 122.965,158.542 122.965 C 158.141 122.965,157.977 123.008,158.177 123.060 M236.302 123.060 C 236.503 123.113,236.831 123.113,237.031 123.060 C 237.232 123.008,237.068 122.965,236.667 122.965 C 236.266 122.965,236.102 123.008,236.302 123.060 M207.135 148.902 C 207.565 148.947,208.268 148.947,208.698 148.902 C 209.128 148.857,208.776 148.820,207.917 148.820 C 207.057 148.820,206.706 148.857,207.135 148.902 M148.396 150.625 C 148.396 151.255,148.435 151.513,148.483 151.198 C 148.530 150.883,148.530 150.367,148.483 150.052 C 148.435 149.737,148.396 149.995,148.396 150.625 M173.906 150.564 C 174.164 150.613,174.586 150.613,174.844 150.564 C 175.102 150.514,174.891 150.473,174.375 150.473 C 173.859 150.473,173.648 150.514,173.906 150.564 M242.240 150.564 C 242.497 150.613,242.919 150.613,243.177 150.564 C 243.435 150.514,243.224 150.473,242.708 150.473 C 242.193 150.473,241.982 150.514,242.240 150.564 M169.048 157.917 C 169.048 160.724,169.078 161.872,169.114 160.469 C 169.150 159.065,169.150 156.768,169.114 155.365 C 169.078 153.961,169.048 155.109,169.048 157.917 M231.340 157.917 C 231.340 160.724,231.370 161.872,231.406 160.469 C 231.442 159.065,231.442 156.768,231.406 155.365 C 231.370 153.961,231.340 155.109,231.340 157.917 M170.290 153.837 C 170.228 153.999,170.211 154.397,170.252 154.722 C 170.313 155.204,170.346 155.150,170.429 154.427 C 170.535 153.516,170.489 153.320,170.290 153.837 M238.624 153.837 C 238.562 153.999,238.544 154.397,238.586 154.722 C 238.647 155.204,238.679 155.150,238.763 154.427 C 238.868 153.516,238.822 153.320,238.624 153.837 M184.219 154.727 C 184.419 154.779,184.747 154.779,184.948 154.727 C 185.148 154.675,184.984 154.632,184.583 154.632 C 184.182 154.632,184.018 154.675,184.219 154.727 M252.552 154.727 C 252.753 154.779,253.081 154.779,253.281 154.727 C 253.482 154.675,253.318 154.632,252.917 154.632 C 252.516 154.632,252.352 154.675,252.552 154.727 M189.041 158.438 C 189.041 160.042,189.074 160.670,189.113 159.835 C 189.153 158.999,189.153 157.686,189.113 156.918 C 189.073 156.150,189.040 156.833,189.041 158.438 M153.390 157.917 C 153.390 158.432,153.431 158.643,153.480 158.385 C 153.530 158.128,153.530 157.706,153.480 157.448 C 153.431 157.190,153.390 157.401,153.390 157.917 M217.548 157.917 C 217.548 158.318,217.591 158.482,217.644 158.281 C 217.696 158.081,217.696 157.753,217.644 157.552 C 217.591 157.352,217.548 157.516,217.548 157.917 M196.615 157.862 C 197.216 157.904,198.201 157.904,198.802 157.862 C 199.404 157.820,198.911 157.785,197.708 157.785 C 196.505 157.785,196.013 157.820,196.615 157.862 M176.396 160.565 L 177.688 160.644 177.767 161.782 L 177.847 162.919 177.830 161.720 L 177.813 160.521 176.458 160.503 L 175.104 160.486 176.396 160.565 M244.729 160.565 L 246.021 160.644 246.101 161.782 L 246.180 162.919 246.163 161.720 L 246.146 160.521 244.792 160.503 L 243.438 160.486 244.729 160.565 " stroke="none" fill="#c4d8e7" fill-rule="evenodd"></path>
    </g>
</svg>